<svg xmlns="http://www.w3.org/2000/svg" xmlns:xlink="http://www.w3.org/1999/xlink" viewBox="0 0 140.2 48" width="140.2" height="48" role="img" aria-labelledby="t d">
<title id="t">Thesis</title>
<desc id="d">Button: Thesis</desc>
<style>@keyframes press{0%{transform:translateY(0px)}9.278%{transform:translateY(0px);animation-timing-function:cubic-bezier(.5,0,.75,0)}10%{transform:translateY(4px)}11.34%{transform:translateY(4px);animation-timing-function:cubic-bezier(.36,0,.6,.37)}12.062%{transform:translateY(0px);animation-timing-function:cubic-bezier(.33,.67,.67,1)}12.423%{transform:translateY(0.8px);animation-timing-function:cubic-bezier(.45,0,.55,1)}13.196%{transform:translateY(0px)}100%{transform:translateY(0px)}}.press{animation:press 9.7s linear infinite}
@media (prefers-reduced-motion: reduce){*{animation:none!important}}</style>
<defs><path id="m0" d="M300 -10Q231 -10 180.5 17Q130 44 102 92.5Q74 141 74 206V524Q74 590 101.5 638Q129 686 180 713Q231 740 300 740Q370 740 420.5 713Q471 686 498.5 638Q526 590 526 524V206Q526 141 498 92.5Q470 44 419.5 17Q369 -10 300 -10ZM300 83Q356 83 389.5 117Q423 151 423 206V524Q423 579 389.5 613Q356 647 300 647Q244 647 210.5 613Q177 579 177 524V206Q177 151 210.5 117Q244 83 300 83ZM300 303Q272 303 254.5 321Q237 339 237 368Q237 396 254.5 413.5Q272 431 300 431Q328 431 345.5 413.5Q363 396 363 368Q363 339 345.5 321Q328 303 300 303Z"/><path id="m1" d="M291 -10Q222 -10 171 16Q120 42 92.5 89.5Q65 137 65 200H173Q173 145 204.5 114Q236 83 292 83Q349 83 380 115Q411 147 411 200V254Q411 310 380 340.5Q349 371 292 371H214V473L384 635H96V730H494V628L293 439V465Q397 465 458 408Q519 351 519 255V200Q519 137 491 89.5Q463 42 411.5 16Q360 -10 291 -10Z"/><path id="n2" d="M237 0V614H46V730H554V614H363V0Z"/><path id="n3" d="M77 0V730H202V550L199 445H233L199 416Q199 484 238.5 522Q278 560 347 560Q428 560 476.5 506Q525 452 525 361V0H400V348Q400 398 374 425Q348 452 301 452Q255 452 228.5 424Q202 396 202 344V0Z"/><path id="n4" d="M301 -10Q231 -10 179 17Q127 44 98.5 92.5Q70 141 70 206V344Q70 409 98.5 457.5Q127 506 179 533Q231 560 301 560Q370 560 421.5 533Q473 506 501.5 457.5Q530 409 530 344V245H191V206Q191 148 219 118.5Q247 89 302 89Q344 89 370 103.5Q396 118 403 146H526Q512 75 450.5 32.5Q389 -10 301 -10ZM409 315V345Q409 402 382 432.5Q355 463 301 463Q247 463 219 432Q191 401 191 344V323L418 325Z"/><path id="n5" d="M279 -9Q216 -9 169 11Q122 31 95.5 66.5Q69 102 67 150H192Q194 124 217.5 108Q241 92 279 92H323Q369 92 392 110Q415 128 415 159Q415 188 394.5 204.5Q374 221 331 226L263 236Q169 249 125 286Q81 323 81 397Q81 474 133 516.5Q185 559 286 559H324Q416 559 471 518Q526 477 530 408H405Q402 430 380.5 444Q359 458 324 458H286Q243 458 223.5 442.5Q204 427 204 397Q204 369 221 355.5Q238 342 276 336L347 326Q445 312 491.5 273.5Q538 235 538 160Q538 80 483.5 35.5Q429 -9 323 -9Z"/><path id="n6" d="M76 0V114H268V437H101V550H388V114H558V0ZM318 642Q280 642 258 661.5Q236 681 236 714Q236 747 258 766.5Q280 786 318 786Q356 786 378 766.5Q400 747 400 714Q400 681 378 661.5Q356 642 318 642Z"/></defs>
<rect x="1" y="5" width="138.2" height="42" rx="21" fill="#D3CCBE" stroke="#ADA595" stroke-width="1"/>
<g class="press"><rect x="1" y="1" width="138.2" height="42" rx="21" fill="#FBFAF7" stroke="#BDB6A8" stroke-width="1.2"/><g transform="translate(18 26.6) scale(0.01300 -0.01300)" fill="#4F6B00"><use xlink:href="#m0"/><use xlink:href="#m1" x="600"/></g><g transform="translate(49.4 26.6) scale(0.01300 -0.01300)" fill="#15171B"><use xlink:href="#n2"/><use xlink:href="#n3" x="600"/><use xlink:href="#n4" x="1200"/><use xlink:href="#n5" x="1800"/><use xlink:href="#n6" x="2400"/><use xlink:href="#n5" x="3000"/></g><path d="M117.19999999999999 16.0 V28.0 M112.19999999999999 23.0 L117.19999999999999 28.0 L122.19999999999999 23.0" fill="none" stroke="#5F636B" stroke-width="2" stroke-linecap="round" stroke-linejoin="round"/></g>
</svg>