<svg xmlns="http://www.w3.org/2000/svg" xmlns:xlink="http://www.w3.org/1999/xlink" viewBox="0 0 1200 380" width="1200" height="380" role="img" aria-labelledby="t d">
<title id="t">Open to remote opportunities: feel free to reach out.</title>
<desc id="d">A closing panel: open to remote opportunities, feel free to reach out. A cursor named You clicks a Say hello button and a burst of confetti pops out.</desc>
<style>
.fb{transform-box:fill-box;transform-origin:center}
.ft{transform-box:fill-box;transform-origin:left top}

@keyframes pulse{0%{transform:scale(1);opacity:.7}100%{transform:scale(3.2);opacity:0}}.pulse{animation:pulse 1.8s ease-out infinite}
@keyframes press{0%,34%{transform:scale(1)}37%{transform:scale(.92)}42%,100%{transform:scale(1)}}.press{animation:press 8s ease-out infinite}
@keyframes cf0{0%,36%{transform:translate(0,0) rotate(0);opacity:0}37%{opacity:1}62%{transform:translate(-128px,38px) rotate(45deg);opacity:1}72%,100%{transform:translate(-135px,98px) rotate(58deg);opacity:0}}.cf0{animation:cf0 8s cubic-bezier(.2,.8,.4,1) infinite}@keyframes cf1{0%,36%{transform:translate(0,0) rotate(0);opacity:0}37%{opacity:1}62%{transform:translate(-14px,-60px) rotate(-340deg);opacity:1}72%,100%{transform:translate(-15px,-0px) rotate(-442deg);opacity:0}}.cf1{animation:cf1 8s cubic-bezier(.2,.8,.4,1) infinite}@keyframes cf2{0%,36%{transform:translate(0,0) rotate(0);opacity:0}37%{opacity:1}62%{transform:translate(-109px,-133px) rotate(-300deg);opacity:1}72%,100%{transform:translate(-115px,-73px) rotate(-390deg);opacity:0}}.cf2{animation:cf2 8s cubic-bezier(.2,.8,.4,1) infinite}@keyframes cf3{0%,36%{transform:translate(0,0) rotate(0);opacity:0}37%{opacity:1}62%{transform:translate(-182px,38px) rotate(-77deg);opacity:1}72%,100%{transform:translate(-191px,98px) rotate(-100deg);opacity:0}}.cf3{animation:cf3 8s cubic-bezier(.2,.8,.4,1) infinite}@keyframes cf4{0%,36%{transform:translate(0,0) rotate(0);opacity:0}37%{opacity:1}62%{transform:translate(216px,34px) rotate(-92deg);opacity:1}72%,100%{transform:translate(227px,94px) rotate(-120deg);opacity:0}}.cf4{animation:cf4 8s cubic-bezier(.2,.8,.4,1) infinite}@keyframes cf5{0%,36%{transform:translate(0,0) rotate(0);opacity:0}37%{opacity:1}62%{transform:translate(-229px,39px) rotate(296deg);opacity:1}72%,100%{transform:translate(-241px,99px) rotate(385deg);opacity:0}}.cf5{animation:cf5 8s cubic-bezier(.2,.8,.4,1) infinite}@keyframes cf6{0%,36%{transform:translate(0,0) rotate(0);opacity:0}37%{opacity:1}62%{transform:translate(216px,64px) rotate(-162deg);opacity:1}72%,100%{transform:translate(227px,124px) rotate(-211deg);opacity:0}}.cf6{animation:cf6 8s cubic-bezier(.2,.8,.4,1) infinite}@keyframes cf7{0%,36%{transform:translate(0,0) rotate(0);opacity:0}37%{opacity:1}62%{transform:translate(-154px,88px) rotate(21deg);opacity:1}72%,100%{transform:translate(-161px,148px) rotate(27deg);opacity:0}}.cf7{animation:cf7 8s cubic-bezier(.2,.8,.4,1) infinite}@keyframes cf8{0%,36%{transform:translate(0,0) rotate(0);opacity:0}37%{opacity:1}62%{transform:translate(-169px,163px) rotate(327deg);opacity:1}72%,100%{transform:translate(-177px,223px) rotate(425deg);opacity:0}}.cf8{animation:cf8 8s cubic-bezier(.2,.8,.4,1) infinite}@keyframes cf9{0%,36%{transform:translate(0,0) rotate(0);opacity:0}37%{opacity:1}62%{transform:translate(-80px,-57px) rotate(-107deg);opacity:1}72%,100%{transform:translate(-84px,3px) rotate(-139deg);opacity:0}}.cf9{animation:cf9 8s cubic-bezier(.2,.8,.4,1) infinite}@keyframes cf10{0%,36%{transform:translate(0,0) rotate(0);opacity:0}37%{opacity:1}62%{transform:translate(-17px,-60px) rotate(200deg);opacity:1}72%,100%{transform:translate(-18px,0px) rotate(260deg);opacity:0}}.cf10{animation:cf10 8s cubic-bezier(.2,.8,.4,1) infinite}@keyframes cf11{0%,36%{transform:translate(0,0) rotate(0);opacity:0}37%{opacity:1}62%{transform:translate(120px,87px) rotate(-62deg);opacity:1}72%,100%{transform:translate(126px,147px) rotate(-81deg);opacity:0}}.cf11{animation:cf11 8s cubic-bezier(.2,.8,.4,1) infinite}@keyframes cf12{0%,36%{transform:translate(0,0) rotate(0);opacity:0}37%{opacity:1}62%{transform:translate(80px,-141px) rotate(160deg);opacity:1}72%,100%{transform:translate(84px,-81px) rotate(208deg);opacity:0}}.cf12{animation:cf12 8s cubic-bezier(.2,.8,.4,1) infinite}@keyframes cf13{0%,36%{transform:translate(0,0) rotate(0);opacity:0}37%{opacity:1}62%{transform:translate(-171px,63px) rotate(-65deg);opacity:1}72%,100%{transform:translate(-179px,123px) rotate(-84deg);opacity:0}}.cf13{animation:cf13 8s cubic-bezier(.2,.8,.4,1) infinite}@keyframes cf14{0%,36%{transform:translate(0,0) rotate(0);opacity:0}37%{opacity:1}62%{transform:translate(-47px,-61px) rotate(-48deg);opacity:1}72%,100%{transform:translate(-50px,-1px) rotate(-62deg);opacity:0}}.cf14{animation:cf14 8s cubic-bezier(.2,.8,.4,1) infinite}@keyframes cf15{0%,36%{transform:translate(0,0) rotate(0);opacity:0}37%{opacity:1}62%{transform:translate(-202px,-7px) rotate(-277deg);opacity:1}72%,100%{transform:translate(-212px,53px) rotate(-360deg);opacity:0}}.cf15{animation:cf15 8s cubic-bezier(.2,.8,.4,1) infinite}@keyframes cf16{0%,36%{transform:translate(0,0) rotate(0);opacity:0}37%{opacity:1}62%{transform:translate(-148px,197px) rotate(-73deg);opacity:1}72%,100%{transform:translate(-155px,257px) rotate(-95deg);opacity:0}}.cf16{animation:cf16 8s cubic-bezier(.2,.8,.4,1) infinite}@keyframes cf17{0%,36%{transform:translate(0,0) rotate(0);opacity:0}37%{opacity:1}62%{transform:translate(19px,-127px) rotate(357deg);opacity:1}72%,100%{transform:translate(20px,-67px) rotate(464deg);opacity:0}}.cf17{animation:cf17 8s cubic-bezier(.2,.8,.4,1) infinite}@keyframes cf18{0%,36%{transform:translate(0,0) rotate(0);opacity:0}37%{opacity:1}62%{transform:translate(-170px,-99px) rotate(-160deg);opacity:1}72%,100%{transform:translate(-179px,-39px) rotate(-208deg);opacity:0}}.cf18{animation:cf18 8s cubic-bezier(.2,.8,.4,1) infinite}@keyframes cf19{0%,36%{transform:translate(0,0) rotate(0);opacity:0}37%{opacity:1}62%{transform:translate(-188px,201px) rotate(290deg);opacity:1}72%,100%{transform:translate(-198px,261px) rotate(377deg);opacity:0}}.cf19{animation:cf19 8s cubic-bezier(.2,.8,.4,1) infinite}@keyframes cf20{0%,36%{transform:translate(0,0) rotate(0);opacity:0}37%{opacity:1}62%{transform:translate(95px,-50px) rotate(4deg);opacity:1}72%,100%{transform:translate(99px,10px) rotate(5deg);opacity:0}}.cf20{animation:cf20 8s cubic-bezier(.2,.8,.4,1) infinite}@keyframes cf21{0%,36%{transform:translate(0,0) rotate(0);opacity:0}37%{opacity:1}62%{transform:translate(-60px,-111px) rotate(289deg);opacity:1}72%,100%{transform:translate(-63px,-51px) rotate(376deg);opacity:0}}.cf21{animation:cf21 8s cubic-bezier(.2,.8,.4,1) infinite}
@keyframes you{0%,8%{transform:translate(260px,200px)}30%,52%{transform:translate(0,0)}74%,100%{transform:translate(260px,200px)}}.you{animation:you 8s cubic-bezier(.65,0,.35,1) infinite}
@media (prefers-reduced-motion: reduce){*{animation:none!important}}</style>
<defs><pattern id="dots" width="24" height="24" patternUnits="userSpaceOnUse"><circle cx="12.0" cy="12.0" r="1.1" fill="#22262D"/></pattern><path id="n0" d="M302 -10Q227 -10 172 15Q117 40 87.5 86.5Q58 133 57 196H182Q182 151 214.5 125.5Q247 100 303 100Q357 100 387.5 125Q418 150 418 194Q418 231 396.5 258.5Q375 286 335 296L251 319Q165 341 118.5 398Q72 455 72 536Q72 598 100 644Q128 690 179.5 715Q231 740 301 740Q407 740 469 685.5Q531 631 532 539H407Q407 582 379 606.5Q351 631 300 631Q251 631 224 608Q197 585 197 543Q197 505 217.5 478.5Q238 452 277 441L364 417Q451 395 497 338.5Q543 282 543 199Q543 137 513 89.5Q483 42 429 16Q375 -10 302 -10Z"/><path id="n1" d="M237 0V614H46V730H554V614H363V0Z"/><path id="n2" d="M35 0 219 730H380L565 0H437L397 177H203L163 0ZM226 279H374L330 475Q319 524 311 563.5Q303 603 300 621Q297 603 289.5 563.5Q282 524 270 476Z"/><path id="n3" d="M300 -10Q193 -10 132.5 48.5Q72 107 72 208V730H198V209Q198 157 224 128Q250 99 300 99Q349 99 375.5 128Q402 157 402 209V730H528V208Q528 107 468 48.5Q408 -10 300 -10Z"/><path id="n4" d="M300 255Q257 255 231.5 280Q206 305 206 348Q206 391 231.5 416.5Q257 442 300 442Q343 442 368.5 416.5Q394 391 394 348Q394 305 368.5 280Q343 255 300 255Z"/><path id="n5" d="M219 0 35 730H165L275 254Q284 219 292 179Q300 139 304 114Q308 139 315 179Q322 219 330 255L439 730H565L381 0Z"/><path id="n6" d="M90 0V110H237V620H90V730H510V620H363V110H510V0Z"/><path id="n7" d="M103 0V730H228V116H538V0Z"/><path id="n8" d="M77 0V730H301Q407 730 469 679.5Q531 629 531 542Q531 493 509 457Q487 421 449.5 401Q412 381 363 381V385Q416 386 457.5 365.5Q499 345 523.5 305Q548 265 548 208Q548 145 519 98Q490 51 437.5 25.5Q385 0 312 0ZM199 104H304Q359 104 390.5 133.5Q422 163 422 214Q422 265 390.5 296.5Q359 328 304 328H199ZM199 429H299Q349 429 377.5 455.5Q406 482 406 528Q406 574 377.5 600Q349 626 299 626H199Z"/><path id="n9" d="M88 0V730H526V621H211V431H491V323H211V109H526V0Z"/><path id="n10" d="M80 0V730H534V614H203V419H508V303H205V0Z"/><path id="n11" d="M300 -10Q230 -10 178.5 16.5Q127 43 99.5 91.5Q72 140 72 206V524Q72 590 99.5 638.5Q127 687 178.5 713.5Q230 740 300 740Q371 740 422 713.5Q473 687 500.5 638.5Q528 590 528 525V206Q528 140 500.5 91.5Q473 43 422 16.5Q371 -10 300 -10ZM300 100Q351 100 377 127.5Q403 155 403 206V524Q403 576 377 603Q351 630 300 630Q249 630 223 603Q197 576 197 524V206Q197 155 223.5 127.5Q250 100 300 100Z"/><path id="n12" d="M76 0V730H307Q380 730 433.5 703Q487 676 517 627.5Q547 579 547 513Q547 441 510.5 386Q474 331 412 308L557 0H417L290 290H201V0ZM201 400H307Q360 400 390 429Q420 458 420 509Q420 561 390 590.5Q360 620 307 620H201Z"/><path id="n13" d="M56 0V730H204L275 498Q286 463 293 434Q300 405 302 392Q304 405 311 434Q318 463 328 498L396 730H544V0H427V227Q427 277 430 336Q433 395 437 454Q441 513 446.5 566Q452 619 456 659L358 314H244L143 659Q148 621 153 569.5Q158 518 162.5 459.5Q167 401 170 341Q173 281 173 227V0Z"/><path id="n14" d="M91 0 16 730H124L168 220Q170 203 171.5 178.5Q173 154 174.5 129Q176 104 176 85Q178 104 180 129Q182 154 184.5 178.5Q187 203 189 220L249 730H354L410 220Q413 203 415.5 178.5Q418 154 421 129Q424 104 426 85Q427 104 428 129Q429 154 430.5 178.5Q432 203 434 220L477 730H584L505 0H367L313 512Q311 531 308.5 556.5Q306 582 304 607.5Q302 633 301 651Q300 633 297.5 607.5Q295 582 293 556.5Q291 531 289 512L230 0Z"/><path id="n15" d="M76 0V730H201V435H288L425 730H561L398 380L569 0H430L286 321H201V0Z"/><path id="a16" d="M360 -14Q288 -14 230 8Q172 30 130.5 73Q89 116 67 179.5Q45 243 45 327Q45 445 86.5 521.5Q128 598 201 636Q274 674 366 674Q437 674 495 652Q553 630 594.5 587Q636 544 658.5 479.5Q681 415 681 331Q681 244 657.5 179.5Q634 115 591.5 72Q549 29 490 7.5Q431 -14 360 -14ZM365 112Q414 112 447.5 136.5Q481 161 498.5 207.5Q516 254 516 321Q516 392 498 441.5Q480 491 445.5 516.5Q411 542 361 542Q313 542 279.5 517.5Q246 493 228 445.5Q210 398 210 329Q210 277 220.5 236.5Q231 196 250 168.5Q269 141 298.5 126.5Q328 112 365 112Z"/><path id="a17" d="M62 -169V258V528H194L196 378L214 376Q223 432 246 469Q269 506 305.5 524Q342 542 389 542Q459 542 509.5 508Q560 474 587 411Q614 348 614 260Q614 182 590.5 120Q567 58 519.5 22Q472 -14 399 -14Q350 -14 316 3.5Q282 21 258.5 55Q235 89 219 140H200Q206 113 211 85Q216 57 219.5 31Q223 5 223 -19V-169ZM340 113Q373 113 396.5 131Q420 149 433 182Q446 215 446 259Q446 306 432.5 339.5Q419 373 394 391.5Q369 410 336 410Q305 410 283.5 396.5Q262 383 248.5 361.5Q235 340 229 316Q223 292 223 271V249Q223 230 228 211Q233 192 243 174.5Q253 157 267 143Q281 129 299.5 121Q318 113 340 113Z"/><path id="a18" d="M313 -14Q247 -14 195 3.5Q143 21 106.5 55Q70 89 51 139Q32 189 32 254Q32 317 50.5 370Q69 423 103.5 461.5Q138 500 188.5 521Q239 542 302 542Q366 542 414.5 521.5Q463 501 494.5 461Q526 421 541 363.5Q556 306 551 232L138 229V313L459 316L402 277Q409 327 396 358.5Q383 390 358 404.5Q333 419 304 419Q269 419 242.5 400Q216 381 201 345Q186 309 186 257Q186 175 221.5 138Q257 101 312 101Q339 101 357 108.5Q375 116 386.5 127.5Q398 139 404.5 153Q411 167 415 180L555 150Q547 113 529.5 83Q512 53 482.5 31Q453 9 411.5 -2.5Q370 -14 313 -14Z"/><path id="a19" d="M62 0V318V528H192L194 373H214Q227 429 251 467Q275 505 312 523.5Q349 542 399 542Q492 542 540.5 477Q589 412 589 270V0H427V252Q427 334 403.5 371.5Q380 409 334 409Q296 409 271.5 386Q247 363 235 325Q223 287 223 240V0Z"/><path id="a20" d="M268 -13Q175 -13 131 36.5Q87 86 87 195V402H12L15 527H69Q101 528 117.5 537Q134 546 138 571L151 645H242V528H369V397H242V202Q242 168 258.5 152Q275 136 309 136Q328 136 345 140Q362 144 373 151V2Q341 -8 314.5 -10.5Q288 -13 268 -13Z"/><path id="a21" d="M305 -14Q225 -14 163.5 17Q102 48 67 110Q32 172 32 265Q32 358 67 419.5Q102 481 164 511.5Q226 542 306 542Q386 542 448 511Q510 480 545 418.5Q580 357 580 264Q580 169 544 107Q508 45 445.5 15.5Q383 -14 305 -14ZM310 103Q346 103 370 119.5Q394 136 406 170Q418 204 418 254Q418 307 405 343.5Q392 380 366.5 399.5Q341 419 301 419Q267 419 242.5 402.5Q218 386 206 352Q194 318 194 267Q194 185 224.5 144Q255 103 310 103Z"/><path id="a22" d="M62 0V245V528H194L197 349H217Q224 419 243.5 460.5Q263 502 299.5 521Q336 540 390 540Q398 540 408 539.5Q418 539 431 537L425 365Q409 373 390.5 375.5Q372 378 358 378Q319 378 290.5 363Q262 348 245.5 317Q229 286 224 239V0Z"/><path id="a23" d="M62 0V341V528H189L191 373H211Q225 430 248 467.5Q271 505 304 523.5Q337 542 381 542Q427 542 457.5 522.5Q488 503 506 465.5Q524 428 530 373H547Q563 432 589 469.5Q615 507 651 524.5Q687 542 729 542Q774 542 807.5 524.5Q841 507 863.5 472.5Q886 438 897 386.5Q908 335 908 267V0H746V247Q746 300 737.5 335Q729 370 711 387.5Q693 405 665 405Q633 405 610.5 384Q588 363 576 325.5Q564 288 564 241V0H406V244Q406 299 396.5 334Q387 369 368.5 387Q350 405 322 405Q290 405 268 384Q246 363 234.5 325.5Q223 288 223 241V0Z"/><path id="s24" d="M154 -9Q92 -9 56 42.5Q20 94 20 182Q20 247 41 307Q62 367 96.5 414Q131 461 173.5 488.5Q216 516 259 516Q321 516 357 465Q393 414 393 325Q393 260 372 200Q351 140 316.5 93Q282 46 239.5 18.5Q197 -9 154 -9ZM152 15Q184 15 214.5 46Q245 77 270 128Q295 179 310 241.5Q325 304 325 367Q325 492 260 492Q229 492 198 461.5Q167 431 142.5 380Q118 329 103 266.5Q88 204 88 141Q88 15 152 15Z"/><path id="s25" d="M-76 -205Q-89 -205 -89 -194Q-89 -184 -73 -182L-59 -180Q-39 -177 -29.5 -168.5Q-20 -160 -15 -138L118 436Q120 444 115.5 448.5Q111 453 103 448Q93 443 84 437.5Q75 432 66 426Q57 420 51 422.5Q45 425 45 432Q45 439 55 446Q83 465 113 479Q130 487 134 505L147 562Q152 583 173 583H191Q203 583 209 576Q215 569 212 556L205 527Q202 510 218 513Q241 516 262 516Q336 516 383 474Q430 432 430 345Q430 277 405 213.5Q380 150 339 100Q298 50 249 20.5Q200 -9 151 -9Q124 -9 100 2Q85 9 82 -6L52 -138Q47 -160 52.5 -167Q58 -174 77 -177L103 -181Q121 -184 121 -193Q121 -205 104 -205ZM110 115Q92 16 153 16Q188 16 224 45.5Q260 75 291 124.5Q322 174 341 236Q360 298 360 363Q360 430 331 459.5Q302 489 246 489Q196 489 189 455Z"/><path id="s26" d="M64 0Q50 0 53 13L148 412Q153 434 149.5 446.5Q146 459 131 459Q113 459 91.5 432.5Q70 406 43 332Q39 319 29 319Q14 319 21 337Q43 406 67.5 445Q92 484 117 500Q142 516 163 516Q196 516 210 491.5Q224 467 211 411L200 364Q199 357 203 356Q207 355 210 361Q248 448 279 482Q310 516 350 516Q377 516 390.5 501.5Q404 487 404 462Q404 437 392 422Q380 407 361 407Q345 407 338 415Q331 423 327.5 433.5Q324 444 320 452Q316 460 307 460Q292 460 268 422Q244 384 216.5 319.5Q189 255 163.5 175Q138 95 119 11Q116 0 105 0Z"/><path id="s27" d="M102 -9Q68 -9 49 18Q30 45 43 105L126 467Q129 482 114 482H76Q62 482 62 495Q62 502 67 506Q72 510 79 510H115Q138 510 142 531L166 638Q169 649 180 649H221Q235 649 232 636L207 525Q204 510 219 510H276Q293 510 293 497Q293 482 272 482H218Q196 482 191 461L107 95Q102 73 108.5 60.5Q115 48 131 48Q154 48 173.5 74Q193 100 215 173Q219 186 228 186Q235 186 237 180Q239 174 234 158Q215 90 192.5 54Q170 18 147 4.5Q124 -9 102 -9Z"/><path id="s28" d="M115 -9Q78 -9 64.5 24.5Q51 58 66 113L145 403Q153 432 149 448Q145 464 131 464Q108 464 84.5 429Q61 394 44 332Q41 321 31 321Q17 321 22 341Q45 425 82.5 470.5Q120 516 165 516Q201 516 213 483Q225 450 209 393L129 103Q110 34 142 34Q162 34 188 61Q214 88 242.5 135Q271 182 299 242Q327 302 350 368Q373 434 388 499Q391 510 402 510H442Q456 510 453 497L359 95Q348 48 376 48Q418 48 464 175Q468 188 478 188Q484 188 486.5 183Q489 178 486 170Q459 85 422 38Q385 -9 344 -9Q272 -9 296 96L322 207Q324 214 319.5 215Q315 216 312 210Q254 90 205 40.5Q156 -9 115 -9Z"/><path id="s29" d="M53 13 148 412Q153 434 149.5 446.5Q146 459 131 459Q113 459 91.5 432.5Q70 406 43 332Q39 319 29 319Q14 319 21 337Q43 406 67.5 445Q92 484 117 500Q142 516 163 516Q196 516 210 491.5Q224 467 211 411L186 303Q185 296 189 295Q193 294 196 300Q235 381 271 428.5Q307 476 339 496Q371 516 397 516Q434 516 451 486Q468 456 451 394L375 104Q368 76 374 62Q380 48 396 48Q416 48 435.5 74.5Q455 101 476 175Q479 186 489 186Q497 186 498.5 180Q500 174 498 166Q479 98 457 59.5Q435 21 412.5 6Q390 -9 367 -9Q331 -9 313 21Q295 51 311 114L388 404Q399 443 391.5 458Q384 473 370 473Q348 473 320 445.5Q292 418 263 370.5Q234 323 206 263Q178 203 155.5 138Q133 73 119 11Q116 0 105 0H64Q50 0 53 13Z"/><path id="s30" d="M204 605Q185 605 172.5 618.5Q160 632 160 651Q160 678 176.5 694Q193 710 214 710Q234 710 247.5 697.5Q261 685 261 665Q261 637 244 621Q227 605 204 605ZM122 -10Q89 -10 75 14.5Q61 39 74 95L148 412Q153 434 149.5 446.5Q146 459 131 459Q113 459 91.5 432.5Q70 406 43 332Q39 319 29 319Q14 319 21 337Q43 406 67.5 445Q92 484 117 500Q142 516 163 516Q198 516 212 491.5Q226 467 213 411L139 94Q134 72 137.5 59.5Q141 47 156 47Q174 47 195.5 73.5Q217 100 244 174Q248 187 258 187Q273 187 266 169Q245 101 219.5 61.5Q194 22 169 6Q144 -10 122 -10Z"/><path id="s31" d="M129 -9Q76 -9 44 32.5Q12 74 12 150Q12 216 35.5 281Q59 346 97 399Q135 452 180.5 484Q226 516 269 516Q316 516 336.5 493.5Q357 471 357 433Q357 388 325.5 343.5Q294 299 237.5 264Q181 229 105 212Q83 207 82 187Q81 180 81 172.5Q81 165 81 158Q81 101 100.5 72Q120 43 154 43Q192 43 227.5 78Q263 113 287 177Q290 186 299 186Q305 186 306.5 181Q308 176 306 169Q274 81 228.5 36Q183 -9 129 -9ZM92 250Q90 243 94.5 238.5Q99 234 106 236Q168 253 210 287.5Q252 322 273.5 365Q295 408 295 449Q295 491 262 491Q233 491 199 457Q165 423 136 368Q107 313 92 250Z"/><path id="s32" d="M116 -9Q83 -9 46.5 1Q10 11 -9 26Q-16 32 -15 44L7 175Q9 188 19 188Q30 188 30 174L32 126Q34 69 59.5 42.5Q85 16 122 16Q154 16 177 36.5Q200 57 200 97Q200 120 193 139.5Q186 159 171 181.5Q156 204 130 236Q96 280 79.5 311.5Q63 343 63 377Q63 440 102.5 478Q142 516 203 516Q230 516 255.5 508Q281 500 298 484Q307 477 304 466L276 332Q273 319 264 319Q255 319 253 333L250 381Q246 441 234.5 467Q223 493 187 493Q155 493 135 471Q115 449 115 418Q115 385 133 357.5Q151 330 182 288Q223 234 237.5 202Q252 170 252 137Q252 95 233.5 62Q215 29 184 10Q153 -9 116 -9Z"/><path id="s33" d="M62 -9Q41 -9 28 4.5Q15 18 15 38Q15 64 33 80Q51 96 71 96Q91 96 104.5 82.5Q118 69 118 49Q118 23 100 7Q82 -9 62 -9Z"/><path id="m34" d="M213 0V394H57V492H213V581Q213 650 257 690Q301 730 377 730H538V634H379Q351 634 335.5 620Q320 606 320 580V492H538V394H320V0Z"/><path id="m35" d="M300 -10Q233 -10 182.5 16.5Q132 43 105 91Q78 139 78 203V347Q78 412 105 459.5Q132 507 182.5 533.5Q233 560 300 560Q368 560 418 533.5Q468 507 495 459.5Q522 412 522 347V249H182V203Q182 142 212.5 110Q243 78 301 78Q348 78 377 94.5Q406 111 413 143H520Q508 73 448 31.5Q388 -10 300 -10ZM418 314V348Q418 408 388 441Q358 474 300 474Q243 474 212.5 441Q182 408 182 347V322L426 323Z"/><path id="m36" d="M379 0Q328 0 290 20.5Q252 41 230.5 79Q209 117 209 167V632H29V730H317V167Q317 135 335 116.5Q353 98 384 98H554V0Z"/><path id="m37" d="M102 0V550H206V445H232L199 380Q199 469 238 514.5Q277 560 354 560Q442 560 493.5 505.5Q545 451 545 356V319H434V347Q434 406 404.5 437.5Q375 469 322 469Q269 469 239.5 437Q210 405 210 347V0Z"/><path id="m38" d="M360 0Q285 0 243 41Q201 82 201 155V452H49V550H201V705H309V550H524V452H309V155Q309 98 364 98H514V0Z"/><path id="m39" d="M300 -9Q232 -9 182 17Q132 43 105 91Q78 139 78 204V346Q78 412 105 459.5Q132 507 182 533Q232 559 300 559Q368 559 418 533Q468 507 495 459.5Q522 412 522 346V204Q522 139 495 91Q468 43 418 17Q368 -9 300 -9ZM300 86Q355 86 385 116.5Q415 147 415 204V346Q415 404 385 434Q355 464 300 464Q246 464 215.5 434Q185 404 185 346V204Q185 147 215.5 116.5Q246 86 300 86Z"/><path id="m40" d="M245 -10Q159 -10 109.5 34.5Q60 79 60 156Q60 234 112.5 278.5Q165 323 257 323H410V374Q410 419 382 444Q354 469 303 469Q258 469 228 449.5Q198 430 193 398H87Q96 472 155.5 516Q215 560 306 560Q404 560 461 510.5Q518 461 518 376V0H413V101H395L413 121Q413 61 367 25.5Q321 -10 245 -10ZM277 73Q335 73 372.5 102.5Q410 132 410 178V250H259Q217 250 192.5 227Q168 204 168 164Q168 122 197 97.5Q226 73 277 73Z"/><path id="m41" d="M304 -10Q236 -10 184.5 15.5Q133 41 105.5 89.5Q78 138 78 203V347Q78 413 105.5 461Q133 509 184.5 534.5Q236 560 304 560Q403 560 463 508Q523 456 526 366H418Q415 413 385 439Q355 465 304 465Q249 465 217 434.5Q185 404 185 348V203Q185 147 217 116Q249 85 304 85Q355 85 385 111Q415 137 418 184H526Q523 94 463 42Q403 -10 304 -10Z"/><path id="m42" d="M84 0V730H192V550L191 445H217L191 420Q191 486 230 523Q269 560 338 560Q420 560 469 507.5Q518 455 518 366V0H410V354Q410 408 381 438Q352 468 302 468Q251 468 221.5 436.5Q192 405 192 347V0Z"/><path id="m43" d="M299 -10Q200 -10 141 47.5Q82 105 82 204V550H190V204Q190 147 219 115.5Q248 84 299 84Q351 84 380.5 115.5Q410 147 410 204V550H518V204Q518 105 458.5 47.5Q399 -10 299 -10Z"/><path id="m44" d="M300 258Q260 258 236 281.5Q212 305 212 345Q212 386 236 410.5Q260 435 300 435Q341 435 364.5 410.5Q388 386 388 345Q388 305 364.5 281.5Q341 258 300 258Z"/><path id="m45" d="M81 0V98H274V452H106V550H379V98H556V0ZM316 645Q281 645 260 663.5Q239 682 239 713Q239 745 260 763.5Q281 782 316 782Q351 782 372 763.5Q393 745 393 713Q393 682 372 663.5Q351 645 316 645Z"/><path id="m46" d="M84 -180V-80H222Q277 -80 308 -50Q339 -20 339 35V451H114V550H447V34Q447 -65 387 -122.5Q327 -180 225 -180ZM388 645Q353 645 332 663.5Q311 682 311 713Q311 745 332 763.5Q353 782 388 782Q423 782 444 763.5Q465 745 465 713Q465 682 444 663.5Q423 645 388 645Z"/><path id="m47" d="M339 -10Q271 -10 231 27.5Q191 65 191 130L214 105H191V0H84V730H192V573L189 445H214L191 420Q191 485 231.5 522.5Q272 560 339 560Q422 560 472 504Q522 448 522 352V197Q522 102 472 46Q422 -10 339 -10ZM302 84Q355 84 385 114.5Q415 145 415 203V347Q415 405 385 435.5Q355 466 302 466Q251 466 221.5 434.5Q192 403 192 347V203Q192 147 221.5 115.5Q251 84 302 84Z"/><path id="m48" d="M325 -180Q238 -180 173.5 -144.5Q109 -109 74 -43.5Q39 22 39 110V450Q39 540 72.5 605Q106 670 167.5 705Q229 740 315 740Q393 740 449.5 710Q506 680 536 625Q566 570 566 496V65H483L486 120H457L474 143Q474 104 444.5 79.5Q415 55 367 55Q303 55 268.5 95.5Q234 136 234 213V330Q234 407 268.5 447.5Q303 488 367 488Q415 488 444.5 463.5Q474 439 474 399L460 420H487L474 489V496Q474 547 455.5 583.5Q437 620 402 640Q367 660 315 660Q228 660 179.5 605Q131 550 131 450V110Q131 14 182.5 -40Q234 -94 325 -94H395V-180ZM400 125Q438 125 456 147.5Q474 170 474 220V331Q474 375 455.5 396.5Q437 418 400 418Q363 418 344.5 396Q326 374 326 330V213Q326 167 344.5 146Q363 125 400 125Z"/><path id="m49" d="M156 -180V-87H325Q367 -87 387.5 -67Q408 -47 408 -8V47L410 149H387L409 169Q409 106 369.5 70Q330 34 263 34Q178 34 129 90Q80 146 80 241V353Q80 448 129 504Q178 560 263 560Q330 560 369.5 523.5Q409 487 409 424L387 445H409L408 550H515V-10Q515 -89 465 -134.5Q415 -180 326 -180ZM298 127Q349 127 378.5 158.5Q408 190 408 246V347Q408 403 378.5 434.5Q349 466 298 466Q245 466 216.5 435.5Q188 405 188 347V246Q188 189 216.5 158Q245 127 298 127Z"/><path id="m50" d="M59 0V550H149V480H169L154 459Q154 505 179 532.5Q204 560 246 560Q291 560 315.5 525Q340 490 340 429L316 480H354L338 459Q338 505 363.5 532.5Q389 560 432 560Q483 560 512 521.5Q541 483 541 419V0H445V416Q445 447 431.5 464Q418 481 393 481Q368 481 354.5 464.5Q341 448 341 417V0H260V416Q260 448 246 464.5Q232 481 206 481Q181 481 168.5 464.5Q156 448 156 417V0Z"/><path id="m51" d="M300 -10Q260 -10 236 13.5Q212 37 212 77Q212 118 236 142.5Q260 167 300 167Q341 167 364.5 142.5Q388 118 388 77Q388 37 364.5 13.5Q341 -10 300 -10Z"/><path id="a52" d="M331 -14Q267 -14 215 -2Q163 10 125 34.5Q87 59 65 97Q43 135 39 185L180 232Q183 190 204 162Q225 134 260.5 120.5Q296 107 340 107Q382 107 410.5 117.5Q439 128 453.5 144.5Q468 161 468 180Q468 202 449 216.5Q430 231 397 241.5Q364 252 320 262Q270 274 222 288Q174 302 135 324.5Q96 347 73.5 382.5Q51 418 51 472Q51 533 82 578Q113 623 173 648.5Q233 674 321 674Q408 674 469 649Q530 624 563 579.5Q596 535 599 476L455 435Q455 464 445.5 486Q436 508 419 522.5Q402 537 377 544.5Q352 552 320 552Q282 552 255.5 543Q229 534 216 519.5Q203 505 203 486Q203 462 223.5 446.5Q244 431 279.5 420.5Q315 410 358 400Q401 391 447 377.5Q493 364 533 342Q573 320 597.5 282.5Q622 245 622 188Q622 127 589.5 81.5Q557 36 492 11Q427 -14 331 -14Z"/><path id="a53" d="M186 -14Q142 -14 108 3.5Q74 21 55 54.5Q36 88 36 136Q36 181 53.5 210.5Q71 240 104.5 257.5Q138 275 185 286.5Q232 298 292 307Q321 312 340.5 316.5Q360 321 370 331Q380 341 380 360Q380 385 362 403Q344 421 304 421Q276 421 253.5 411Q231 401 215 382Q199 363 191 336L49 378Q62 420 85.5 451Q109 482 142 502.5Q175 523 217.5 532.5Q260 542 308 542Q388 542 438.5 516.5Q489 491 513.5 437.5Q538 384 538 300V219Q538 183 539.5 146.5Q541 110 543.5 73.5Q546 37 550 0H408Q404 23 400 55.5Q396 88 394 122H375Q361 84 334.5 52.5Q308 21 270.5 3.5Q233 -14 186 -14ZM259 100Q277 100 295.5 106.5Q314 113 331 124.5Q348 136 362 153Q376 170 383 190L381 269L403 264Q384 252 361 245Q338 238 314.5 234Q291 230 268.5 225.5Q246 221 228.5 214Q211 207 201 195Q191 183 191 162Q191 134 210 117Q229 100 259 100Z"/><path id="a54" d="M265 -184Q225 -184 183 -177Q141 -170 103.5 -156.5Q66 -143 39 -121L78 22Q113 -11 162.5 -27Q212 -43 258 -43Q311 -43 345.5 -22.5Q380 -2 398.5 40.5Q417 83 420 146L425 233H401Q392 168 369.5 127Q347 86 312.5 66.5Q278 47 231 47Q173 47 134 76Q95 105 75.5 163.5Q56 222 56 309V528H218V349Q218 257 236.5 217.5Q255 178 295 178Q316 178 333 190Q350 202 362 224Q374 246 380.5 277.5Q387 309 387 348V528H548V140Q548 77 536.5 25Q525 -27 502.5 -66Q480 -105 446 -131.5Q412 -158 367 -171Q322 -184 265 -184Z"/><path id="a55" d="M62 0V336V720H223V555Q223 535 221.5 513.5Q220 492 216.5 469.5Q213 447 209.5 424Q206 401 201 379H225Q239 428 260 464.5Q281 501 315 521.5Q349 542 402 542Q496 542 542.5 476.5Q589 411 589 275V0H427V248Q427 329 403.5 369.5Q380 410 332 410Q295 410 271 387Q247 364 235 325.5Q223 287 223 240V0Z"/><path id="a56" d="M62 0V720H220V0Z"/><path id="n57" d="M237 0V265L23 730H154L268 477Q281 447 290 418Q299 389 302 373Q306 389 314.5 418Q323 447 336 477L447 730H577L363 265V0Z"/><path id="n58" d="M300 -9Q230 -9 178.5 17.5Q127 44 98.5 92.5Q70 141 70 207V343Q70 409 98.5 457.5Q127 506 178.5 532.5Q230 559 300 559Q371 559 422 532.5Q473 506 501.5 457.5Q530 409 530 344V207Q530 141 501.5 92.5Q473 44 422 17.5Q371 -9 300 -9ZM300 100Q350 100 377.5 127.5Q405 155 405 207V343Q405 396 377.5 423Q350 450 300 450Q251 450 223 423Q195 396 195 343V207Q195 155 223 127.5Q251 100 300 100Z"/><path id="n59" d="M300 -10Q195 -10 135 48.5Q75 107 75 208V550H200V209Q200 156 226 127.5Q252 99 300 99Q347 99 373.5 127.5Q400 156 400 209V550H525V208Q525 107 464 48.5Q403 -10 300 -10Z"/><path id="m60" d="M84 0V550H191V445H217L191 420Q191 486 230 523Q269 560 338 560Q420 560 469 507.5Q518 455 518 366V0H410V354Q410 408 381 437Q352 466 302 466Q251 466 221.5 435.5Q192 405 192 347V0Z"/><path id="m61" d="M261 -10Q178 -10 128 46Q78 102 78 197V352Q78 448 128 504Q178 560 261 560Q329 560 369 522.5Q409 485 409 420L386 445H411L408 573V730H516V0H409V105H386L409 130Q409 65 369 27.5Q329 -10 261 -10ZM298 84Q349 84 378.5 115.5Q408 147 408 203V347Q408 403 378.5 434.5Q349 466 298 466Q245 466 215 435.5Q185 405 185 347V203Q185 145 215 114.5Q245 84 298 84Z"/><path id="m62" d="M140 281V379H460V281Z"/><path id="m63" d="M113 0 28 550H119L170 187Q174 162 177.5 131.5Q181 101 183 81Q185 101 189.5 131Q194 161 198 187L255 550H346L402 187Q406 161 410.5 130.5Q415 100 417 80Q419 101 423.5 131.5Q428 162 432 187L484 550H572L484 0H370L316 359Q312 387 307 418.5Q302 450 300 469Q297 450 292.5 418.5Q288 387 284 359L228 0Z"/><path id="m64" d="M303 -10Q229 -10 176 14.5Q123 39 94 84.5Q65 130 65 193H172Q172 143 207 114.5Q242 86 304 86Q362 86 395 114Q428 142 428 191Q428 232 405.5 262Q383 292 341 303L249 330Q169 353 125.5 408.5Q82 464 82 541Q82 601 109 646Q136 691 186 716Q236 741 304 741Q404 741 464.5 687Q525 633 526 542H418Q418 590 387.5 617.5Q357 645 302 645Q249 645 219 619.5Q189 594 189 548Q189 507 211.5 477Q234 447 276 435L369 407Q449 385 492 329Q535 273 535 195Q535 134 506 87.5Q477 41 425 15.5Q373 -10 303 -10Z"/><path id="m65" d="M228 0 43 730H154L271 244Q282 201 290.5 158.5Q299 116 303 92Q307 116 314.5 158.5Q322 201 333 245L449 730H557L371 0Z"/><path id="m66" d="M304 -10Q236 -10 185.5 15.5Q135 41 107.5 89.5Q80 138 80 203V527Q80 593 107.5 641Q135 689 185.5 714.5Q236 740 304 740Q372 740 422 714Q472 688 499.5 640.5Q527 593 527 527H419Q419 584 389 614Q359 644 304 644Q249 644 218.5 614Q188 584 188 528V203Q188 147 218.5 116Q249 85 304 85Q359 85 389 116Q419 147 419 203V285H283V380H527V203Q527 138 499.5 90Q472 42 422 16Q372 -10 304 -10Z"/><path id="m67" d="M247 94V281H62V379H247V566H353V379H538V281H353V94Z"/><path id="m68" d="M304 -10Q236 -10 185.5 15.5Q135 41 107.5 89.5Q80 138 80 203V527Q80 593 107.5 641Q135 689 185.5 714.5Q236 740 304 740Q372 740 422 714Q472 688 499.5 640.5Q527 593 527 527H419Q419 584 389 614Q359 644 304 644Q249 644 218.5 614Q188 584 188 528V203Q188 147 218.5 116.5Q249 86 304 86Q359 86 389 116.5Q419 147 419 203H527Q527 138 499.5 90Q472 42 422 16Q372 -10 304 -10Z"/><path id="m69" d="M270 -10Q162 -10 100 50Q38 110 38 213H145Q145 152 178 118.5Q211 85 270 85Q329 85 362 118.5Q395 152 395 212V631H223V730H502V212Q502 109 439.5 49.5Q377 -10 270 -10Z"/><path id="m70" d="M229 0 47 550H157L270 198Q281 167 289.5 135.5Q298 104 302 86Q307 104 315.5 135.5Q324 167 333 198L444 550H553L371 0Z"/><path id="m71" d="M84 -180V550H191V445H214L191 420Q191 485 231.5 522.5Q272 560 340 560Q423 560 472.5 504.5Q522 449 522 353V198Q522 134 499.5 87.5Q477 41 436.5 15.5Q396 -10 340 -10Q273 -10 232 27.5Q191 65 191 130L214 105H189L192 -23V-180ZM303 84Q356 84 385.5 114.5Q415 145 415 203V347Q415 405 385.5 435.5Q356 466 303 466Q252 466 222 434.5Q192 403 192 347V203Q192 147 222 115.5Q252 84 303 84Z"/></defs>
<rect x="0.75" y="0.75" width="1198.5" height="378.5" rx="22" fill="#0B0C0E" stroke="#252931" stroke-width="1.5"/>
<rect x="1" y="1" width="1198" height="378" rx="22" fill="url(#dots)"/>
<circle cx="54" cy="66" r="5" fill="#C9F31D"/><circle class="fb pulse" cx="54" cy="66" r="5" fill="#C9F31D"/>
<g transform="translate(70 70.5) scale(0.01300 -0.01300)" fill="#C9F31D"><use xlink:href="#n0"/><use xlink:href="#n1" x="676.92"/><use xlink:href="#n2" x="1353.85"/><use xlink:href="#n1" x="2030.77"/><use xlink:href="#n3" x="2707.69"/><use xlink:href="#n0" x="3384.62"/><use xlink:href="#n4" x="4738.46"/><use xlink:href="#n2" x="6092.31"/><use xlink:href="#n5" x="6769.23"/><use xlink:href="#n2" x="7446.15"/><use xlink:href="#n6" x="8123.08"/><use xlink:href="#n7" x="8800"/><use xlink:href="#n2" x="9476.92"/><use xlink:href="#n8" x="10153.9"/><use xlink:href="#n7" x="10830.8"/><use xlink:href="#n9" x="11507.7"/><use xlink:href="#n10" x="12861.5"/><use xlink:href="#n11" x="13538.5"/><use xlink:href="#n12" x="14215.4"/><use xlink:href="#n12" x="15569.2"/><use xlink:href="#n9" x="16246.1"/><use xlink:href="#n13" x="16923.1"/><use xlink:href="#n11" x="17600"/><use xlink:href="#n1" x="18276.9"/><use xlink:href="#n9" x="18953.8"/><use xlink:href="#n14" x="20307.7"/><use xlink:href="#n11" x="20984.6"/><use xlink:href="#n12" x="21661.5"/><use xlink:href="#n15" x="22338.5"/></g>
<g transform="translate(44 172) scale(0.09200 -0.09200)" fill="#EEEBE3"><use xlink:href="#a16"/><use xlink:href="#a17" x="725"/><use xlink:href="#a18" x="1375"/><use xlink:href="#a19" x="1962"/><use xlink:href="#a20" x="2828"/><use xlink:href="#a21" x="3232"/><use xlink:href="#a22" x="4067"/><use xlink:href="#a18" x="4513"/><use xlink:href="#a23" x="5100"/><use xlink:href="#a21" x="6063"/><use xlink:href="#a20" x="6675"/><use xlink:href="#a18" x="7079"/></g>
<g transform="translate(46 262) scale(0.10400 -0.10400)" fill="#C9F31D"><use xlink:href="#s24"/><use xlink:href="#s25" x="414"/><use xlink:href="#s25" x="864"/><use xlink:href="#s24" x="1314"/><use xlink:href="#s26" x="1728"/><use xlink:href="#s27" x="2096"/><use xlink:href="#s28" x="2368"/><use xlink:href="#s29" x="2876"/><use xlink:href="#s30" x="3397"/><use xlink:href="#s27" x="3685"/><use xlink:href="#s30" x="3957"/><use xlink:href="#s31" x="4245"/><use xlink:href="#s32" x="4593"/><use xlink:href="#s33" x="4895"/></g>
<g transform="translate(48 326) scale(0.01500 -0.01500)" fill="#8C919A"><use xlink:href="#m34"/><use xlink:href="#m35" x="600"/><use xlink:href="#m35" x="1200"/><use xlink:href="#m36" x="1800"/><use xlink:href="#m34" x="3000"/><use xlink:href="#m37" x="3600"/><use xlink:href="#m35" x="4200"/><use xlink:href="#m35" x="4800"/><use xlink:href="#m38" x="6000"/><use xlink:href="#m39" x="6600"/><use xlink:href="#m37" x="7800"/><use xlink:href="#m35" x="8400"/><use xlink:href="#m40" x="9000"/><use xlink:href="#m41" x="9600"/><use xlink:href="#m42" x="10200"/><use xlink:href="#m39" x="11400"/><use xlink:href="#m43" x="12000"/><use xlink:href="#m38" x="12600"/><use xlink:href="#m44" x="13800"/><use xlink:href="#m34" x="15000"/><use xlink:href="#m40" x="15600"/><use xlink:href="#m38" x="16200"/><use xlink:href="#m45" x="16800"/><use xlink:href="#m42" x="17400"/><use xlink:href="#m40" x="18000"/><use xlink:href="#m36" x="18600"/><use xlink:href="#m46" x="19200"/><use xlink:href="#m40" x="19800"/><use xlink:href="#m47" x="20400"/><use xlink:href="#m40" x="21000"/><use xlink:href="#m37" x="21600"/><use xlink:href="#m48" x="22200"/><use xlink:href="#m49" x="22800"/><use xlink:href="#m50" x="23400"/><use xlink:href="#m40" x="24000"/><use xlink:href="#m45" x="24600"/><use xlink:href="#m36" x="25200"/><use xlink:href="#m51" x="25800"/><use xlink:href="#m41" x="26400"/><use xlink:href="#m39" x="27000"/><use xlink:href="#m50" x="27600"/></g>
<g class="fb press"><rect x="862" y="196" width="268" height="76" rx="22" fill="#C9F31D"/><g transform="translate(896 243) scale(0.02800 -0.02800)" fill="#0B0C0E"><use xlink:href="#a52"/><use xlink:href="#a53" x="658"/><use xlink:href="#a54" x="1253"/><use xlink:href="#a55" x="2084"/><use xlink:href="#a18" x="2727"/><use xlink:href="#a56" x="3314"/><use xlink:href="#a56" x="3597"/><use xlink:href="#a21" x="3880"/></g><path d="M1072 244 L1094 222 M1078.16 222 L1094 222 L1094 237.84" fill="none" stroke="#0B0C0E" stroke-width="3" stroke-linecap="round" stroke-linejoin="round"/></g>
<g transform="translate(996 234)"><g class="cf0"><circle r="4.5" fill="#C9F31D"/></g><g class="cf1"><rect x="-5" y="-3" width="10" height="6" rx="1.5" fill="#FF6B3D"/></g><g class="cf2"><rect x="-5" y="-3" width="10" height="6" rx="1.5" fill="#7CC4FF"/></g><g class="cf3"><circle r="4.5" fill="#EEEBE3"/></g><g class="cf4"><rect x="-5" y="-3" width="10" height="6" rx="1.5" fill="#C9F31D"/></g><g class="cf5"><rect x="-5" y="-3" width="10" height="6" rx="1.5" fill="#FF6B3D"/></g><g class="cf6"><circle r="4.5" fill="#7CC4FF"/></g><g class="cf7"><rect x="-5" y="-3" width="10" height="6" rx="1.5" fill="#EEEBE3"/></g><g class="cf8"><rect x="-5" y="-3" width="10" height="6" rx="1.5" fill="#C9F31D"/></g><g class="cf9"><circle r="4.5" fill="#FF6B3D"/></g><g class="cf10"><rect x="-5" y="-3" width="10" height="6" rx="1.5" fill="#7CC4FF"/></g><g class="cf11"><rect x="-5" y="-3" width="10" height="6" rx="1.5" fill="#EEEBE3"/></g><g class="cf12"><circle r="4.5" fill="#C9F31D"/></g><g class="cf13"><rect x="-5" y="-3" width="10" height="6" rx="1.5" fill="#FF6B3D"/></g><g class="cf14"><rect x="-5" y="-3" width="10" height="6" rx="1.5" fill="#7CC4FF"/></g><g class="cf15"><circle r="4.5" fill="#EEEBE3"/></g><g class="cf16"><rect x="-5" y="-3" width="10" height="6" rx="1.5" fill="#C9F31D"/></g><g class="cf17"><rect x="-5" y="-3" width="10" height="6" rx="1.5" fill="#FF6B3D"/></g><g class="cf18"><circle r="4.5" fill="#7CC4FF"/></g><g class="cf19"><rect x="-5" y="-3" width="10" height="6" rx="1.5" fill="#EEEBE3"/></g><g class="cf20"><rect x="-5" y="-3" width="10" height="6" rx="1.5" fill="#C9F31D"/></g><g class="cf21"><circle r="4.5" fill="#FF6B3D"/></g></g>
<g transform="translate(1028.16 240.08)"><g class="you"><path d="M0 0 L0 23 L6.2 17.4 L10.6 27 L14.6 25.3 L10.3 15.8 L18 15.8 Z" fill="#FF6B3D" stroke="#0B0C0E" stroke-width="1.6" stroke-linejoin="round"/><rect x="15" y="26" width="41.4" height="24" rx="7" fill="#FF6B3D"/><g transform="translate(24 42.5) scale(0.01300 -0.01300)" fill="#0B0C0E"><use xlink:href="#n57"/><use xlink:href="#n58" x="600"/><use xlink:href="#n59" x="1200"/></g></g></g>
<g transform="translate(909.2 350) scale(0.01100 -0.01100)" fill="#5B606A"><use xlink:href="#m42"/><use xlink:href="#m40" x="600"/><use xlink:href="#m60" x="1200"/><use xlink:href="#m61" x="1800"/><use xlink:href="#m62" x="2400"/><use xlink:href="#m63" x="3000"/><use xlink:href="#m37" x="3600"/><use xlink:href="#m45" x="4200"/><use xlink:href="#m38" x="4800"/><use xlink:href="#m38" x="5400"/><use xlink:href="#m35" x="6000"/><use xlink:href="#m60" x="6600"/><use xlink:href="#m64" x="7800"/><use xlink:href="#m65" x="8400"/><use xlink:href="#m66" x="9000"/><use xlink:href="#m67" x="10200"/><use xlink:href="#m68" x="11400"/><use xlink:href="#m64" x="12000"/><use xlink:href="#m64" x="12600"/><use xlink:href="#m44" x="13800"/><use xlink:href="#m60" x="15000"/><use xlink:href="#m39" x="15600"/><use xlink:href="#m69" x="16800"/><use xlink:href="#m40" x="17400"/><use xlink:href="#m70" x="18000"/><use xlink:href="#m40" x="18600"/><use xlink:href="#m64" x="19200"/><use xlink:href="#m41" x="19800"/><use xlink:href="#m37" x="20400"/><use xlink:href="#m45" x="21000"/><use xlink:href="#m71" x="21600"/><use xlink:href="#m38" x="22200"/></g>
</svg>