<svg xmlns="http://www.w3.org/2000/svg" xmlns:xlink="http://www.w3.org/1999/xlink" viewBox="0 0 1200 300" width="1200" height="300" role="img" aria-labelledby="t d">
<title id="t">Tech stack marquee</title>
<desc id="d">Three rows of technologies scroll sideways: front-end, back-end and data, machine learning and tooling.</desc>
<style>
.fb{transform-box:fill-box;transform-origin:center}
.ft{transform-box:fill-box;transform-origin:left top}

@keyframes mq0{from{transform:translateX(0)}to{transform:translateX(-2482.8px)}}.mq0{animation:mq0 65.3s linear infinite normal}
@keyframes mq1{from{transform:translateX(0)}to{transform:translateX(-2468.29px)}}.mq1{animation:mq1 65.0s linear infinite reverse}
@keyframes mq2{from{transform:translateX(0)}to{transform:translateX(-2440.87px)}}.mq2{animation:mq2 64.2s linear infinite normal}
@media (prefers-reduced-motion: reduce){*{animation:none!important}}</style>
<defs><clipPath id="panel"><rect x="1" y="1" width="1198" height="298" rx="22"/></clipPath><linearGradient id="fadeL" x1="0" x2="1"><stop offset="0" stop-color="#111317"/><stop offset=".72" stop-color="#111317"/><stop offset="1" stop-color="#111317" stop-opacity="0"/></linearGradient><linearGradient id="fadeR" x1="0" x2="1"><stop offset="0" stop-color="#111317" stop-opacity="0"/><stop offset="1" stop-color="#111317"/></linearGradient><path id="b0" d="M217 0V660H344V0ZM21 553V660H541V553Z"/><path id="b1" d="M265 -179Q225 -179 184 -171Q143 -163 107.5 -146.5Q72 -130 48 -104L91 0Q120 -33 166 -50Q212 -67 259 -67Q314 -67 350 -44.5Q386 -22 405 25Q424 72 426 142L433 237H412Q402 169 379 126.5Q356 84 321.5 64.5Q287 45 241 45Q184 45 145 74Q106 103 86.5 160Q67 217 67 301V523H194V330Q194 236 217 193.5Q240 151 287 151Q312 151 333 164.5Q354 178 368.5 203.5Q383 229 391.5 267Q400 305 401 354V523H528V137Q528 74 517.5 23.5Q507 -27 486 -64.5Q465 -102 433.5 -128Q402 -154 360 -166.5Q318 -179 265 -179Z"/><path id="b2" d="M71 -166V258V523H177L176 381L193 380Q203 430 225.5 465Q248 500 283 518Q318 536 366 536Q436 536 485 501.5Q534 467 559.5 404.5Q585 342 585 259Q585 181 561.5 119.5Q538 58 490.5 22.5Q443 -13 373 -13Q322 -13 287 7Q252 27 230 62Q208 97 194 143H176Q182 116 186.5 87.5Q191 59 194 31.5Q197 4 197 -21V-166ZM332 90Q371 90 398 111.5Q425 133 439 171.5Q453 210 453 260Q453 312 438.5 350Q424 388 396 409Q368 430 330 430Q297 430 272 415Q247 400 230 375.5Q213 351 205 323Q197 295 197 268V251Q197 231 202.5 209.5Q208 188 219 166.5Q230 145 246 127.5Q262 110 284 100Q306 90 332 90Z"/><path id="b3" d="M307 -13Q244 -13 194.5 5Q145 23 111 57.5Q77 92 59 141Q41 190 41 252Q41 314 58.5 366Q76 418 109 456Q142 494 189.5 515Q237 536 298 536Q355 536 400 517Q445 498 476 460.5Q507 423 522 367.5Q537 312 532 239L123 236V309L459 312L415 271Q421 328 406 364.5Q391 401 363 418.5Q335 436 299 436Q258 436 227 414.5Q196 393 179.5 352.5Q163 312 163 254Q163 167 201.5 124Q240 81 307 81Q337 81 357.5 88.5Q378 96 392 108.5Q406 121 414.5 137Q423 153 428 171L538 146Q530 109 512 80Q494 51 465.5 30Q437 9 398 -2Q359 -13 307 -13Z"/><path id="b4" d="M324 -13Q259 -13 208 -0.5Q157 12 121.5 38.5Q86 65 67 103.5Q48 142 47 194L159 227Q158 179 179 147.5Q200 116 239.5 101Q279 86 330 86Q379 86 412.5 98Q446 110 463 130.5Q480 151 480 177Q480 206 459 223.5Q438 241 402.5 252.5Q367 264 322 274Q273 285 226.5 298Q180 311 142 333Q104 355 81.5 389.5Q59 424 59 477Q59 537 89 580.5Q119 624 176.5 648.5Q234 673 314 673Q393 673 452 649.5Q511 626 544 581Q577 536 579 475L464 443Q464 476 453.5 500.5Q443 525 423 541.5Q403 558 375.5 566Q348 574 313 574Q272 574 241.5 563Q211 552 195 532.5Q179 513 179 487Q179 455 203 436Q227 417 266.5 405.5Q306 394 353 383Q396 374 439.5 361Q483 348 520 327Q557 306 579.5 270.5Q602 235 602 181Q602 123 571 79Q540 35 478 11Q416 -13 324 -13Z"/><path id="b5" d="M306 -13Q238 -13 188.5 7Q139 27 106.5 63.5Q74 100 58 149Q42 198 42 255Q42 316 58.5 367Q75 418 108 456Q141 494 189.5 515Q238 536 301 536Q364 536 410.5 515Q457 494 486 456.5Q515 419 525 369L407 332Q405 362 391 385.5Q377 409 353 422Q329 435 296 435Q264 435 240.5 422.5Q217 410 201.5 387Q186 364 177.5 331.5Q169 299 169 259Q169 204 184 165Q199 126 230 104.5Q261 83 307 83Q348 83 373.5 98.5Q399 114 412.5 139Q426 164 429 194L541 169Q535 128 518 95Q501 62 471.5 37.5Q442 13 401 0Q360 -13 306 -13Z"/><path id="b6" d="M71 0V262V523H177L175 343H193Q202 407 221 449.5Q240 492 274 513.5Q308 535 358 535Q368 535 379.5 534Q391 533 405 529L400 396Q384 402 367.5 404.5Q351 407 337 407Q298 407 269.5 387Q241 367 223.5 330.5Q206 294 197 244V0Z"/><path id="b7" d="M71 0V523H197V0ZM134 605Q96 605 75.5 621.5Q55 638 55 669Q55 700 75.5 716.5Q96 733 134 733Q174 733 194 717Q214 701 214 669Q214 638 193.5 621.5Q173 605 134 605Z"/><path id="b8" d="M254 -12Q171 -12 132 32.5Q93 77 93 171V422H16L18 522H69Q98 522 112 531Q126 540 129 563L141 639H214V523H352V418H214V176Q214 139 231.5 122Q249 105 284 105Q303 105 321.5 109.5Q340 114 356 125V5Q325 -5 299.5 -8.5Q274 -12 254 -12Z"/><path id="b9" d="M78 0V660H333Q385 660 428.5 651.5Q472 643 505.5 627Q539 611 562 587.5Q585 564 597 533.5Q609 503 609 466Q609 431 598 402.5Q587 374 565.5 353Q544 332 511.5 318.5Q479 305 436 299V286Q482 280 511.5 263Q541 246 559 216Q577 186 590 139L630 0H491L460 128Q451 168 432.5 192Q414 216 386 226Q358 236 318 236H204V0ZM204 333H324Q399 333 438.5 361Q478 389 478 447Q478 505 440.5 533Q403 561 326 561H204Z"/><path id="b10" d="M192 -13Q149 -13 115 3.5Q81 20 61.5 53Q42 86 42 135Q42 176 57.5 205Q73 234 104 252.5Q135 271 181 283.5Q227 296 289 305Q323 310 344.5 315Q366 320 376 330.5Q386 341 386 362Q386 393 364.5 415.5Q343 438 295 438Q266 438 239.5 428Q213 418 194 396.5Q175 375 168 340L55 375Q66 415 87 444.5Q108 474 139 495Q170 516 210 526Q250 536 298 536Q371 536 418 512.5Q465 489 488 439.5Q511 390 511 312V214Q511 180 512.5 143.5Q514 107 516.5 70.5Q519 34 523 0H410Q406 28 403 60Q400 92 398 125H382Q368 87 342 55.5Q316 24 278.5 5.5Q241 -13 192 -13ZM242 80Q262 80 282.5 87Q303 94 323 108Q343 122 360 142.5Q377 163 389 191L387 280L411 276Q394 262 369 254Q344 246 316.5 242Q289 238 261.5 232.5Q234 227 212 218.5Q190 210 177 194.5Q164 179 164 152Q164 118 186 99Q208 80 242 80Z"/><path id="b11" d="M78 0V660H243L559 169H568L560 660H683V0H533L203 510H193L201 0Z"/><path id="b12" d="M17 0 192 261 17 523H163L267 321H283L387 523H533L358 261L535 0H390L283 203H267L164 0Z"/><path id="b13" d="M106 -12Q65 -12 44 6Q23 24 23 62Q23 101 44 119Q65 137 106 137Q149 137 170.5 119Q192 101 192 62Q192 -12 106 -12Z"/><path id="b14" d="M26 -196Q17 -196 8 -194.5Q-1 -193 -12 -191L-22 -81Q30 -85 53 -70.5Q76 -56 76 -5V523H203V-5Q203 -54 191.5 -90Q180 -126 158 -149.5Q136 -173 102.5 -184.5Q69 -196 26 -196ZM139 605Q101 605 80.5 621.5Q60 638 60 669Q60 700 80.5 716.5Q101 733 139 733Q179 733 199 717Q219 701 219 669Q219 638 198.5 621.5Q178 605 139 605Z"/><path id="b15" d="M274 -13Q221 -13 178.5 -2.5Q136 8 106 27.5Q76 47 58 74.5Q40 102 36 136L135 173Q137 147 155 126.5Q173 106 205 94Q237 82 282 82Q332 82 359.5 97.5Q387 113 387 142Q387 163 372 175.5Q357 188 328.5 196.5Q300 205 260 213Q223 221 185.5 231.5Q148 242 116.5 259.5Q85 277 65.5 305.5Q46 334 46 378Q46 426 71.5 461Q97 496 145.5 516Q194 536 263 536Q328 536 375.5 518Q423 500 453 466.5Q483 433 491 387L387 354Q384 382 368 401.5Q352 421 325 431Q298 441 262 441Q216 441 190 425Q164 409 164 382Q164 360 180.5 347Q197 334 226.5 326Q256 318 294 310Q334 302 371.5 291.5Q409 281 439 264Q469 247 487 219.5Q505 192 505 149Q505 97 477 60.5Q449 24 397.5 5.5Q346 -13 274 -13Z"/><path id="b16" d="M243 0 22 660H160L327 108H339L507 660H643L421 0Z"/><path id="b17" d="M244 -13Q154 -13 108.5 48.5Q63 110 63 235V523H190V249Q190 170 214 131Q238 92 288 92Q317 92 339 106.5Q361 121 377 147.5Q393 174 402.5 209Q412 244 414 286V523H540V215V0H436L438 165H420Q407 102 383.5 63Q360 24 326 5.5Q292 -13 244 -13Z"/><path id="b18" d="M71 0V710H195V0Z"/><path id="b19" d="M151 0 18 523H150L233 102H251L346 523H500L598 102H616L697 523H826L693 0H518L428 419H413L325 0Z"/><path id="b20" d="M71 0V319V523H176L173 363H191Q205 422 228.5 460Q252 498 289 517Q326 536 375 536Q464 536 510.5 473Q557 410 557 278V0H430V265Q430 350 404.5 389.5Q379 429 329 429Q287 429 258 402.5Q229 376 213.5 332.5Q198 289 197 237V0Z"/><path id="b21" d="M258 -13Q192 -13 143.5 21Q95 55 69 116.5Q43 178 43 262Q43 341 67 402.5Q91 464 137.5 499.5Q184 535 253 535Q306 535 340.5 514.5Q375 494 397 457.5Q419 421 432 372H453Q447 403 442 434Q437 465 433.5 493.5Q430 522 430 545V710H557V257V0H450L452 148H433Q422 96 399 60Q376 24 341.5 5.5Q307 -13 258 -13ZM298 91Q331 91 356 106.5Q381 122 397.5 146Q414 170 422.5 198.5Q431 227 431 252V269Q431 288 425.5 310Q420 332 409.5 353.5Q399 375 382.5 392.5Q366 410 344.5 420.5Q323 431 297 431Q258 431 231 409Q204 387 189.5 349Q175 311 175 260Q175 209 190 171Q205 133 232.5 112Q260 91 298 91Z"/><path id="b22" d="M372 -13Q297 -13 238 8.5Q179 30 138 72.5Q97 115 75 178Q53 241 53 322Q53 406 75.5 471Q98 536 139 581.5Q180 627 237 650Q294 673 364 673Q418 673 464 659Q510 645 543.5 617.5Q577 590 596 551.5Q615 513 616 464L498 433Q499 478 479 508Q459 538 427.5 553Q396 568 360 568Q328 568 296.5 555Q265 542 240 514Q215 486 200 440.5Q185 395 185 329Q185 245 209.5 193Q234 141 277.5 116.5Q321 92 376 92Q432 92 465 114.5Q498 137 513 174.5Q528 212 530 256L641 237Q640 185 625 139Q610 93 578.5 59Q547 25 496 6Q445 -13 372 -13Z"/><path id="b23" d="M78 0V660H204V0ZM135 259V364H518V259ZM135 551V660H558V551Z"/><path id="b24" d="M71 0V331V523H174L171 363H189Q203 421 225.5 459.5Q248 498 281 517Q314 536 357 536Q405 536 436 514Q467 492 483.5 453.5Q500 415 504 364H520Q533 422 557.5 460Q582 498 617.5 517Q653 536 696 536Q738 536 770 519Q802 502 823.5 469.5Q845 437 855.5 388Q866 339 866 275V0H739V259Q739 315 729.5 352Q720 389 700.5 407.5Q681 426 650 426Q615 426 589 403Q563 380 548 338.5Q533 297 530 244V0H406V253Q406 311 396 349.5Q386 388 366 407Q346 426 315 426Q279 426 253.5 402Q228 378 213.5 336Q199 294 197 242V0Z"/><path id="b25" d="M78 0V660H269L465 141H470L663 660H846V0H726L734 532H724L515 0H405L199 532H189L197 0Z"/><path id="b26" d="M303 -13Q226 -13 167 18.5Q108 50 74.5 111.5Q41 173 41 263Q41 355 75.5 415.5Q110 476 169 506Q228 536 302 536Q379 536 438 505Q497 474 531 412.5Q565 351 565 260Q565 168 531 107Q497 46 437.5 16.5Q378 -13 303 -13ZM308 83Q350 83 379 102.5Q408 122 423.5 161Q439 200 439 254Q439 311 422.5 351.5Q406 392 375.5 414Q345 436 299 436Q259 436 229 416.5Q199 397 183.5 359Q168 321 168 265Q168 177 205.5 130Q243 83 308 83Z"/><path id="b27" d="M71 0V711H195V312Q229 333 260 358.5Q291 384 317 412Q343 440 363 468.5Q383 497 396 523H541Q525 484 499 446Q473 408 438.5 376Q404 344 361 320.5Q318 297 269 288V274Q331 283 373 268Q415 253 444 223Q473 193 492.5 153.5Q512 114 529 73L555 0H416L400 48Q381 98 360.5 136.5Q340 175 309.5 196.5Q279 218 231 218H195V0Z"/><path id="b28" d="M663 -147Q594 -160 545 -163.5Q496 -167 458 -163.5Q420 -160 383 -153Q346 -146 302.5 -139Q259 -132 201 -128.5Q143 -125 59 -128V-22Q91 -23 129 -22.5Q167 -22 208 -18.5Q249 -15 289.5 -9Q330 -3 365.5 7.5Q401 18 428 32V46Q353 24 293.5 26.5Q234 29 189 52Q144 75 114 115.5Q84 156 68.5 211.5Q53 267 53 332Q53 406 73 468.5Q93 531 132 576.5Q171 622 228.5 647.5Q286 673 362 673Q457 673 525.5 632.5Q594 592 631 515.5Q668 439 668 331Q668 242 644 179.5Q620 117 575 74.5Q530 32 465 6Q400 -20 319 -36V-48Q371 -54 413 -58Q455 -62 494.5 -62Q534 -62 574.5 -57.5Q615 -53 663 -42ZM363 89Q422 89 461.5 116Q501 143 520.5 195.5Q540 248 540 325Q540 405 519.5 458.5Q499 512 458.5 540Q418 568 359 568Q301 568 261.5 540.5Q222 513 202 459.5Q182 406 182 328Q182 249 203 196Q224 143 264.5 116Q305 89 363 89Z"/><path id="b29" d="M34 0V120L379 541V553H46V660H520V530L181 118V107H532V0Z"/><path id="b30" d="M362 -13Q304 -13 257.5 -1Q211 11 176.5 34Q142 57 119 90Q96 123 84.5 165Q73 207 73 256V660H200V261Q200 206 218 170.5Q236 135 272 117.5Q308 100 362 100Q417 100 452.5 117Q488 134 506 170Q524 206 524 261V660H650V256Q650 128 577.5 57.5Q505 -13 362 -13Z"/><path id="b31" d="M78 0V660H206V0Z"/><path id="b32" d="M71 0V325V710H198V547Q198 526 196.5 504Q195 482 192 459Q189 436 185.5 413Q182 390 178 367H199Q213 421 235 458.5Q257 496 291.5 516Q326 536 376 536Q467 536 512 472.5Q557 409 557 280V0H430V262Q430 348 404.5 389Q379 430 328 430Q286 430 258 404.5Q230 379 215 337Q200 295 197 242V0Z"/><path id="b33" d="M-6 -86 245 708H363L112 -86Z"/><path id="b34" d="M31 209V323H314V209Z"/><path id="b35" d="M23 -8 12 109Q23 108 33.5 107Q44 106 50 106Q96 106 120.5 120Q145 134 154 162.5Q163 191 163 236V660H290V236Q290 158 268 103Q246 48 198 18.5Q150 -11 70 -11Q62 -11 51 -10Q40 -9 23 -8Z"/><path id="b36" d="M192 0 13 522H153L274 101H289L410 522H546L366 0Z"/><path id="b37" d="M512 0V660H638V0ZM78 0V660H204V0ZM149 283V387H562V283Z"/><path id="b38" d="M78 0V660H204V0ZM107 0V108H493V0Z"/><path id="b39" d="M297 -14Q223 -14 168 8Q113 30 82.5 70Q52 110 51 167L170 192Q176 141 208.5 115Q241 89 296 89Q357 89 390.5 122.5Q424 156 424 224Q424 253 418 277.5Q412 302 398.5 320Q385 338 363.5 348Q342 358 311 358Q288 358 270 352.5Q252 347 238 336.5Q224 326 213 311.5Q202 297 194 280H63L87 660H524V554H193L178 349H190Q211 403 257 428Q303 453 357 453Q424 453 467.5 425Q511 397 532.5 346Q554 295 554 226Q554 142 521 89Q488 36 430 11Q372 -14 297 -14Z"/><path id="b40" d="M285 -14Q221 -14 174 -0.5Q127 13 95.5 37.5Q64 62 47 98Q30 134 26 178L142 214Q143 179 155 155Q167 131 187 115.5Q207 100 233 93Q259 86 287 86Q328 86 360 97.5Q392 109 411 133.5Q430 158 430 197Q430 245 398.5 274.5Q367 304 307 315Q247 326 161 320V395L387 551V559L57 557V661H514V538L303 388V379Q397 383 452 358Q507 333 531 290Q555 247 555 194Q555 131 525.5 84Q496 37 436 11.5Q376 -14 285 -14Z"/><path id="b41" d="M78 0V660H205V0ZM160 0V104H571V0ZM160 287V383H522V287ZM160 556V660H569V556Z"/><path id="b42" d="M161 192V293H316Q396 293 435.5 324.5Q475 356 475 429Q475 494 438 527Q401 560 324 560H161V660H327Q391 660 442 645Q493 630 529 601Q565 572 584 527.5Q603 483 603 425Q603 349 568.5 297Q534 245 466.5 218.5Q399 192 299 192ZM78 0V660H204V0Z"/><path id="b43" d="M140 0V104H333Q393 104 432.5 131Q472 158 491.5 208Q511 258 511 328Q511 387 498.5 430Q486 473 461 500.5Q436 528 398 542Q360 556 309 556H140V660H305Q422 660 496.5 621Q571 582 606.5 509.5Q642 437 642 335Q642 263 625 207.5Q608 152 579 112.5Q550 73 511 48Q472 23 427.5 11.5Q383 0 336 0ZM78 0V660H204V0Z"/><path id="b44" d="M35 0V108L313 406V420H39V523H475V417L193 117V104H477V0Z"/><path id="b45" d="M358 -13Q286 -13 230 10Q174 33 134.5 76.5Q95 120 74 183Q53 246 53 327Q53 444 93 520.5Q133 597 203 635Q273 673 362 673Q431 673 487 650.5Q543 628 582.5 584.5Q622 541 644 476.5Q666 412 666 329Q666 246 644.5 182.5Q623 119 583 75.5Q543 32 486.5 9.5Q430 -13 358 -13ZM361 89Q418 89 456.5 116.5Q495 144 515.5 196Q536 248 536 323Q536 400 515 455Q494 510 454.5 538.5Q415 567 358 567Q304 567 264.5 539.5Q225 512 204 458.5Q183 405 183 328Q183 270 195 225.5Q207 181 229.5 151Q252 121 285.5 105Q319 89 361 89Z"/><path id="b46" d="M274 -180Q189 -180 134.5 -167Q80 -154 54 -128Q28 -102 28 -64Q28 -18 64.5 11.5Q101 41 173 48V68Q119 67 91 79.5Q63 92 63 120Q63 147 90.5 168Q118 189 182 203V223Q121 226 87 261.5Q53 297 53 354Q53 405 81 444Q109 483 163.5 505.5Q218 528 296 528H555V428L391 452V430Q453 420 482.5 395Q512 370 512 327Q512 286 486 254.5Q460 223 410.5 205.5Q361 188 291 188Q278 188 263 189Q248 190 216 194Q195 179 182 167.5Q169 156 169 146Q169 138 179 132.5Q189 127 205 125Q221 123 236 123H375Q395 123 426.5 120Q458 117 489.5 104Q521 91 542.5 63Q564 35 564 -16Q564 -73 531.5 -109.5Q499 -146 434.5 -163Q370 -180 274 -180ZM285 -78Q347 -78 384 -71Q421 -64 437 -48.5Q453 -33 453 -9Q453 13 443 25.5Q433 38 417.5 43Q402 48 386 49Q370 50 359 50H236Q188 43 168.5 23Q149 3 149 -21Q149 -45 165 -57.5Q181 -70 211.5 -74Q242 -78 285 -78ZM288 257Q340 257 367 281.5Q394 306 394 346Q394 389 366.5 416.5Q339 444 287 444Q235 444 206.5 417Q178 390 178 348Q178 321 190.5 300.5Q203 280 227.5 268.5Q252 257 288 257Z"/><path id="b47" d="M78 0V660H341Q400 660 447 650Q494 640 527.5 618.5Q561 597 579 564Q597 531 597 485Q597 446 581.5 417.5Q566 389 532 370.5Q498 352 443 345V330Q537 323 580.5 282.5Q624 242 624 174Q624 117 595.5 78.5Q567 40 509.5 20Q452 0 365 0ZM198 103H367Q435 103 467.5 124.5Q500 146 500 191Q500 243 457.5 269Q415 295 328 295H198ZM198 377H308Q392 377 432.5 400Q473 423 473 470Q473 515 437.5 536.5Q402 558 329 558H198Z"/><path id="b48" d="M371 -13Q321 -13 285 6.5Q249 26 226.5 62Q204 98 194 148H176L177 0H71V257V710H197V541Q197 517 194 489Q191 461 186 431.5Q181 402 175 372H196Q209 420 230.5 456.5Q252 493 287 514Q322 535 373 535Q438 535 485.5 500.5Q533 466 559 404.5Q585 343 585 259Q585 177 559.5 116Q534 55 486.5 21Q439 -13 371 -13ZM331 91Q368 91 396 112Q424 133 438.5 171Q453 209 453 261Q453 311 439 349Q425 387 398 409Q371 431 332 431Q306 431 284 420.5Q262 410 246 392.5Q230 375 219 354Q208 333 202.5 310.5Q197 288 197 269V252Q197 227 205 198.5Q213 170 230 146Q247 122 272 106.5Q297 91 331 91Z"/><path id="b49" d="M22 0 250 660H435L663 0H525L350 559H336L159 0ZM143 136V225H559V136Z"/><path id="b50" d="M111 0V346H24V441L161 434V452Q130 461 109 478.5Q88 496 78.5 520Q69 544 69 572Q69 615 90 646Q111 677 149 694.5Q187 712 239 712Q282 712 317.5 701Q353 690 375 674L365 558Q343 576 314 586.5Q285 597 258 597Q227 597 207 579.5Q187 562 187 523Q187 498 196 482.5Q205 467 219.5 458.5Q234 450 248 446H370V346H234V0Z"/><path id="b51" d="M45 0V134L294 306Q313 320 333 336.5Q353 353 370 374Q387 395 398 419.5Q409 444 409 472Q409 502 395.5 523Q382 544 356.5 556Q331 568 294 568Q261 568 237.5 558Q214 548 198.5 528.5Q183 509 176 480Q169 451 169 413L48 437Q46 510 74.5 563.5Q103 617 159 646.5Q215 676 296 676Q367 676 420.5 653Q474 630 504 587Q534 544 534 481Q534 432 517.5 392.5Q501 353 475 321Q449 289 418 264.5Q387 240 358 221L190 108V100L546 105V0Z"/><path id="b52" d="M78 0V660H204V358Q256 379 303 411.5Q350 444 388.5 484.5Q427 525 454.5 569.5Q482 614 495 660H639Q623 608 593 558.5Q563 509 523.5 466.5Q484 424 440 391.5Q396 359 352 339V326Q399 325 436.5 314Q474 303 504 279.5Q534 256 557 221Q580 186 598 138L648 0H505L473 109Q455 163 430 196Q405 229 365 245Q325 261 263 261H204V0Z"/><path id="b53" d="M337 -13Q256 -13 191.5 24Q127 61 90 136Q53 211 53 324Q53 406 74 470.5Q95 535 136 580.5Q177 626 236 649.5Q295 673 373 673Q432 673 479.5 659.5Q527 646 562 620Q597 594 617 557Q637 520 640 473L520 437Q518 482 496.5 511Q475 540 441.5 554Q408 568 369 568Q312 568 271 543Q230 518 208 465Q186 412 186 329Q186 266 199 220.5Q212 175 236 146.5Q260 118 294 104.5Q328 91 369 91Q416 91 450.5 107Q485 123 505.5 157Q526 191 530 243H396V337H655V223V0H563L571 173H554Q539 111 512 69.5Q485 28 442 7.5Q399 -13 337 -13Z"/><path id="n54" d="M80 0V730H534V614H203V419H508V303H205V0Z"/><path id="n55" d="M76 0V730H307Q380 730 433.5 703Q487 676 517 627.5Q547 579 547 513Q547 441 510.5 386Q474 331 412 308L557 0H417L290 290H201V0ZM201 400H307Q360 400 390 429Q420 458 420 509Q420 561 390 590.5Q360 620 307 620H201Z"/><path id="n56" d="M300 -10Q230 -10 178.5 16.5Q127 43 99.5 91.5Q72 140 72 206V524Q72 590 99.5 638.5Q127 687 178.5 713.5Q230 740 300 740Q371 740 422 713.5Q473 687 500.5 638.5Q528 590 528 525V206Q528 140 500.5 91.5Q473 43 422 16.5Q371 -10 300 -10ZM300 100Q351 100 377 127.5Q403 155 403 206V524Q403 576 377 603Q351 630 300 630Q249 630 223 603Q197 576 197 524V206Q197 155 223.5 127.5Q250 100 300 100Z"/><path id="n57" d="M72 0V730H225L428 140Q425 172 421.5 215.5Q418 259 416 304.5Q414 350 414 384V730H528V0H375L174 590Q176 561 179 520Q182 479 184 436Q186 393 186 357V0Z"/><path id="n58" d="M237 0V614H46V730H554V614H363V0Z"/><path id="n59" d="M140 272V388H460V272Z"/><path id="n60" d="M88 0V730H526V621H211V431H491V323H211V109H526V0Z"/><path id="n61" d="M75 0V730H292Q366 730 420.5 702Q475 674 505 623Q535 572 535 502V229Q535 160 505 108.5Q475 57 420.5 28.5Q366 0 292 0ZM200 115H292Q346 115 378 145.5Q410 176 410 229V502Q410 554 378 584.5Q346 615 292 615H200Z"/><path id="m62" d="M87 0V96H281V636L86 491V608L253 730H389V96H546V0Z"/><path id="m63" d="M170 0 432 631H177V524H70V730H539V626L286 0Z"/><path id="m64" d="M360 0Q285 0 243 41Q201 82 201 155V452H49V550H201V705H309V550H524V452H309V155Q309 98 364 98H514V0Z"/><path id="m65" d="M300 -9Q232 -9 182 17Q132 43 105 91Q78 139 78 204V346Q78 412 105 459.5Q132 507 182 533Q232 559 300 559Q368 559 418 533Q468 507 495 459.5Q522 412 522 346V204Q522 139 495 91Q468 43 418 17Q368 -9 300 -9ZM300 86Q355 86 385 116.5Q415 147 415 204V346Q415 404 385 434Q355 464 300 464Q246 464 215.5 434Q185 404 185 346V204Q185 147 215.5 116.5Q246 86 300 86Z"/><path id="m66" d="M379 0Q328 0 290 20.5Q252 41 230.5 79Q209 117 209 167V632H29V730H317V167Q317 135 335 116.5Q353 98 384 98H554V0Z"/><path id="m67" d="M281 -9Q222 -9 177.5 10Q133 29 107.5 62.5Q82 96 78 142H186Q190 115 215 98.5Q240 82 281 82H324Q373 82 398 102Q423 122 423 155Q423 187 400.5 205.5Q378 224 334 230L263 241Q175 255 133.5 291.5Q92 328 92 400Q92 476 141.5 517.5Q191 559 288 559H326Q412 559 463.5 519.5Q515 480 522 414H414Q410 438 387.5 453Q365 468 326 468H288Q241 468 219.5 450.5Q198 433 198 399Q198 369 217 354Q236 339 276 333L349 321Q442 308 485.5 269.5Q529 231 529 158Q529 79 477.5 35Q426 -9 324 -9Z"/><path id="n68" d="M77 0V730H301Q407 730 469 679.5Q531 629 531 542Q531 493 509 457Q487 421 449.5 401Q412 381 363 381V385Q416 386 457.5 365.5Q499 345 523.5 305Q548 265 548 208Q548 145 519 98Q490 51 437.5 25.5Q385 0 312 0ZM199 104H304Q359 104 390.5 133.5Q422 163 422 214Q422 265 390.5 296.5Q359 328 304 328H199ZM199 429H299Q349 429 377.5 455.5Q406 482 406 528Q406 574 377.5 600Q349 626 299 626H199Z"/><path id="n69" d="M35 0 219 730H380L565 0H437L397 177H203L163 0ZM226 279H374L330 475Q319 524 311 563.5Q303 603 300 621Q297 603 289.5 563.5Q282 524 270 476Z"/><path id="n70" d="M304 -10Q234 -10 181.5 16.5Q129 43 100.5 91.5Q72 140 72 206V524Q72 591 100.5 639Q129 687 181.5 713.5Q234 740 304 740Q375 740 426.5 713.5Q478 687 507 639Q536 591 536 524H410Q410 576 382.5 603Q355 630 304 630Q253 630 225 603Q197 576 197 525V206Q197 155 225 127.5Q253 100 304 100Q355 100 382.5 127.5Q410 155 410 206H536Q536 141 507 92Q478 43 426.5 16.5Q375 -10 304 -10Z"/><path id="n71" d="M76 0V730H201V435H288L425 730H561L398 380L569 0H430L286 321H201V0Z"/><path id="n72" d="M233 -10Q143 -10 93 40Q43 90 43 178V271Q43 338 76.5 381Q110 424 172 434L159 407Q128 450 111.5 491Q95 532 95 572Q95 622 119 659.5Q143 697 186 718.5Q229 740 287 740Q347 740 391.5 717Q436 694 460.5 653.5Q485 613 485 558H369Q369 582 359 600Q349 618 330.5 627.5Q312 637 287 637Q263 637 245 628Q227 619 217.5 602Q208 585 208 562Q208 538 220.5 509Q233 480 255 450L393 255L448 360H569L462 157L574 0H449L402 66Q332 -10 233 -10ZM243 93Q272 93 297 109Q322 125 340 153L203 345Q182 337 172 318.5Q162 300 162 271V178Q162 138 183.5 115.5Q205 93 243 93Z"/><path id="m73" d="M300 -10Q230 -10 179 14Q128 38 100 82.5Q72 127 72 186Q72 252 108 299Q144 346 219 381L324 430Q364 449 386 480.5Q408 512 408 550Q408 595 379 621Q350 647 300 647Q250 647 220.5 620.5Q191 594 191 549Q191 512 213 480.5Q235 449 273 431L378 383Q457 346 492.5 298.5Q528 251 528 186Q528 96 466.5 43Q405 -10 300 -10ZM300 84Q356 84 389 113.5Q422 143 422 191Q422 230 400 263.5Q378 297 339 316L231 367Q157 402 121 447Q85 492 85 555Q85 610 111.5 652Q138 694 186 717.5Q234 741 300 741Q366 741 414 717.5Q462 694 488 652Q514 610 514 555Q514 491 478.5 447Q443 403 368 366L259 315Q221 297 199.5 264Q178 231 178 193Q178 144 211 114Q244 84 300 84Z"/><path id="n74" d="M56 0V730H204L275 498Q286 463 293 434Q300 405 302 392Q304 405 311 434Q318 463 328 498L396 730H544V0H427V227Q427 277 430 336Q433 395 437 454Q441 513 446.5 566Q452 619 456 659L358 314H244L143 659Q148 621 153 569.5Q158 518 162.5 459.5Q167 401 170 341Q173 281 173 227V0Z"/><path id="n75" d="M103 0V730H228V116H538V0Z"/><path id="n76" d="M90 0V110H237V620H90V730H510V620H363V110H510V0Z"/><path id="n77" d="M304 -10Q234 -10 181.5 16.5Q129 43 100.5 91.5Q72 140 72 206V524Q72 591 100.5 639Q129 687 181.5 713.5Q234 740 304 740Q375 740 426.5 713.5Q478 687 507 639Q536 591 536 524H410Q410 576 382.5 603Q355 630 304 630Q253 630 225 603Q197 576 197 525V206Q197 155 225 127Q253 99 304 99Q355 99 382.5 127Q410 155 410 206V280H286V388H536V206Q536 140 507 91.5Q478 43 426.5 16.5Q375 -10 304 -10Z"/></defs>
<rect x="0.75" y="0.75" width="1198.5" height="298.5" rx="22" fill="#111317" stroke="#252931" stroke-width="1.5"/>
<g clip-path="url(#panel)">
<g transform="translate(0 42)"><g class="mq0"><rect x="0" y="0" width="149.83" height="52" rx="14" fill="#171A1F" stroke="#252931" stroke-width="1.2"/><circle cx="20" cy="26" r="5" fill="#C9F31D"/><g transform="translate(34 32.5) scale(0.01900 -0.01900)" fill="#EEEBE3"><use xlink:href="#b0"/><use xlink:href="#b1" x="538"/><use xlink:href="#b2" x="1135"/><use xlink:href="#b3" x="1764"/><use xlink:href="#b4" x="2340"/><use xlink:href="#b5" x="2987"/><use xlink:href="#b6" x="3547"/><use xlink:href="#b7" x="3969"/><use xlink:href="#b2" x="4237"/><use xlink:href="#b8" x="4865"/></g><rect x="161.83" y="0" width="102.65" height="52" rx="14" fill="#171A1F" stroke="#252931" stroke-width="1.2"/><circle cx="181.83" cy="26" r="5" fill="#C9F31D"/><g transform="translate(195.83 32.5) scale(0.01900 -0.01900)" fill="#EEEBE3"><use xlink:href="#b9"/><use xlink:href="#b3" x="668"/><use xlink:href="#b10" x="1246"/><use xlink:href="#b5" x="1822"/><use xlink:href="#b8" x="2382"/></g><rect x="276.48" y="0" width="113.42" height="52" rx="14" fill="#171A1F" stroke="#252931" stroke-width="1.2"/><circle cx="296.48" cy="26" r="5" fill="#C9F31D"/><g transform="translate(310.48 32.5) scale(0.01900 -0.01900)" fill="#EEEBE3"><use xlink:href="#b11"/><use xlink:href="#b3" x="761"/><use xlink:href="#b12" x="1323"/><use xlink:href="#b8" x="1889"/><use xlink:href="#b13" x="2305"/><use xlink:href="#b14" x="2526"/><use xlink:href="#b15" x="2799"/></g><rect x="401.9" y="0" width="104.51" height="52" rx="14" fill="#171A1F" stroke="#252931" stroke-width="1.2"/><circle cx="421.9" cy="26" r="5" fill="#C9F31D"/><g transform="translate(435.9 32.5) scale(0.01900 -0.01900)" fill="#EEEBE3"><use xlink:href="#b16"/><use xlink:href="#b17" x="644"/><use xlink:href="#b3" x="1255"/><use xlink:href="#b13" x="1836"/><use xlink:href="#b14" x="2057"/><use xlink:href="#b15" x="2330"/></g><rect x="518.41" y="0" width="167.74" height="52" rx="14" fill="#171A1F" stroke="#252931" stroke-width="1.2"/><circle cx="538.41" cy="26" r="5" fill="#C9F31D"/><g transform="translate(552.41 32.5) scale(0.01900 -0.01900)" fill="#EEEBE3"><use xlink:href="#b0"/><use xlink:href="#b10" x="496"/><use xlink:href="#b7" x="1072"/><use xlink:href="#b18" x="1340"/><use xlink:href="#b19" x="1606"/><use xlink:href="#b7" x="2451"/><use xlink:href="#b20" x="2719"/><use xlink:href="#b21" x="3339"/><use xlink:href="#b22" x="4205"/><use xlink:href="#b4" x="4893"/><use xlink:href="#b4" x="5550"/></g><rect x="698.15" y="0" width="185.62" height="52" rx="14" fill="#171A1F" stroke="#252931" stroke-width="1.2"/><circle cx="718.15" cy="26" r="5" fill="#C9F31D"/><g transform="translate(732.15 32.5) scale(0.01900 -0.01900)" fill="#EEEBE3"><use xlink:href="#b23"/><use xlink:href="#b6" x="569"/><use xlink:href="#b10" x="983"/><use xlink:href="#b24" x="1559"/><use xlink:href="#b3" x="2488"/><use xlink:href="#b6" x="3064"/><use xlink:href="#b25" x="3724"/><use xlink:href="#b26" x="4648"/><use xlink:href="#b8" x="5255"/><use xlink:href="#b7" x="5644"/><use xlink:href="#b26" x="5912"/><use xlink:href="#b20" x="6519"/></g><rect x="895.77" y="0" width="194.46" height="52" rx="14" fill="#171A1F" stroke="#252931" stroke-width="1.2"/><circle cx="915.77" cy="26" r="5" fill="#C9F31D"/><g transform="translate(929.77 32.5) scale(0.01900 -0.01900)" fill="#EEEBE3"><use xlink:href="#b0"/><use xlink:href="#b10" x="496"/><use xlink:href="#b20" x="1072"/><use xlink:href="#b4" x="1688"/><use xlink:href="#b8" x="2335"/><use xlink:href="#b10" x="2724"/><use xlink:href="#b5" x="3300"/><use xlink:href="#b27" x="3860"/><use xlink:href="#b28" x="4674"/><use xlink:href="#b17" x="5398"/><use xlink:href="#b3" x="6009"/><use xlink:href="#b6" x="6585"/><use xlink:href="#b1" x="7006"/></g><rect x="1102.23" y="0" width="124.4" height="52" rx="14" fill="#171A1F" stroke="#252931" stroke-width="1.2"/><circle cx="1122.23" cy="26" r="5" fill="#C9F31D"/><g transform="translate(1136.23 32.5) scale(0.01900 -0.01900)" fill="#EEEBE3"><use xlink:href="#b29"/><use xlink:href="#b17" x="553"/><use xlink:href="#b15" x="1164"/><use xlink:href="#b8" x="1703"/><use xlink:href="#b10" x="2092"/><use xlink:href="#b20" x="2668"/><use xlink:href="#b21" x="3288"/></g><rect x="1238.63" y="0" width="124.84" height="52" rx="14" fill="#171A1F" stroke="#252931" stroke-width="1.2"/><circle cx="1258.63" cy="26" r="5" fill="#C9F31D"/><g transform="translate(1272.63 32.5) scale(0.01900 -0.01900)" fill="#EEEBE3"><use xlink:href="#b9"/><use xlink:href="#b10" x="668"/><use xlink:href="#b21" x="1246"/><use xlink:href="#b7" x="1874"/><use xlink:href="#b12" x="2142"/><use xlink:href="#b30" x="2931"/><use xlink:href="#b31" x="3655"/></g><rect x="1375.47" y="0" width="140.57" height="52" rx="14" fill="#171A1F" stroke="#252931" stroke-width="1.2"/><circle cx="1395.47" cy="26" r="5" fill="#C9F31D"/><g transform="translate(1409.47 32.5) scale(0.01900 -0.01900)" fill="#EEEBE3"><use xlink:href="#b15"/><use xlink:href="#b32" x="540"/><use xlink:href="#b10" x="1159"/><use xlink:href="#b21" x="1737"/><use xlink:href="#b5" x="2365"/><use xlink:href="#b20" x="2925"/><use xlink:href="#b33" x="3544"/><use xlink:href="#b17" x="3888"/><use xlink:href="#b7" x="4499"/></g><rect x="1528.05" y="0" width="133.12" height="52" rx="14" fill="#171A1F" stroke="#252931" stroke-width="1.2"/><circle cx="1548.05" cy="26" r="5" fill="#C9F31D"/><g transform="translate(1562.05 32.5) scale(0.01900 -0.01900)" fill="#EEEBE3"><use xlink:href="#b9"/><use xlink:href="#b3" x="668"/><use xlink:href="#b5" x="1248"/><use xlink:href="#b32" x="1808"/><use xlink:href="#b10" x="2427"/><use xlink:href="#b6" x="3003"/><use xlink:href="#b8" x="3447"/><use xlink:href="#b15" x="3836"/></g><rect x="1673.17" y="0" width="85.99" height="52" rx="14" fill="#171A1F" stroke="#252931" stroke-width="1.2"/><circle cx="1693.17" cy="26" r="5" fill="#C9F31D"/><g transform="translate(1707.17 32.5) scale(0.01900 -0.01900)" fill="#EEEBE3"><use xlink:href="#b16"/><use xlink:href="#b7" x="665"/><use xlink:href="#b8" x="933"/><use xlink:href="#b3" x="1318"/></g><rect x="1771.16" y="0" width="169.26" height="52" rx="14" fill="#171A1F" stroke="#252931" stroke-width="1.2"/><circle cx="1791.16" cy="26" r="5" fill="#C9F31D"/><g transform="translate(1805.16 32.5) scale(0.01900 -0.01900)" fill="#EEEBE3"><use xlink:href="#b9"/><use xlink:href="#b3" x="668"/><use xlink:href="#b10" x="1246"/><use xlink:href="#b5" x="1822"/><use xlink:href="#b8" x="2382"/><use xlink:href="#b9" x="3009"/><use xlink:href="#b26" x="3675"/><use xlink:href="#b17" x="4282"/><use xlink:href="#b8" x="4894"/><use xlink:href="#b3" x="5279"/><use xlink:href="#b6" x="5855"/></g><rect x="1952.42" y="0" width="125.79" height="52" rx="14" fill="#171A1F" stroke="#252931" stroke-width="1.2"/><circle cx="1972.42" cy="26" r="5" fill="#C9F31D"/><g transform="translate(1986.42 32.5) scale(0.01900 -0.01900)" fill="#EEEBE3"><use xlink:href="#b20"/><use xlink:href="#b3" x="619"/><use xlink:href="#b12" x="1181"/><use xlink:href="#b8" x="1747"/><use xlink:href="#b34" x="2103"/><use xlink:href="#b7" x="2448"/><use xlink:href="#b20" x="2716"/><use xlink:href="#b8" x="3334"/><use xlink:href="#b18" x="3723"/></g><rect x="2090.21" y="0" width="144.09" height="52" rx="14" fill="#171A1F" stroke="#252931" stroke-width="1.2"/><circle cx="2110.21" cy="26" r="5" fill="#C9F31D"/><g transform="translate(2124.21 32.5) scale(0.01900 -0.01900)" fill="#EEEBE3"><use xlink:href="#b35"/><use xlink:href="#b10" x="358"/><use xlink:href="#b36" x="920"/><use xlink:href="#b10" x="1466"/><use xlink:href="#b4" x="2038"/><use xlink:href="#b5" x="2685"/><use xlink:href="#b6" x="3245"/><use xlink:href="#b7" x="3667"/><use xlink:href="#b2" x="3935"/><use xlink:href="#b8" x="4563"/></g><rect x="2246.3" y="0" width="112.93" height="52" rx="14" fill="#171A1F" stroke="#252931" stroke-width="1.2"/><circle cx="2266.3" cy="26" r="5" fill="#C9F31D"/><g transform="translate(2280.3 32.5) scale(0.01900 -0.01900)" fill="#EEEBE3"><use xlink:href="#b37"/><use xlink:href="#b0" x="716"/><use xlink:href="#b25" x="1278"/><use xlink:href="#b38" x="2202"/><use xlink:href="#b39" x="2708"/></g><rect x="2371.23" y="0" width="99.57" height="52" rx="14" fill="#171A1F" stroke="#252931" stroke-width="1.2"/><circle cx="2391.23" cy="26" r="5" fill="#C9F31D"/><g transform="translate(2405.23 32.5) scale(0.01900 -0.01900)" fill="#EEEBE3"><use xlink:href="#b22"/><use xlink:href="#b4" x="688"/><use xlink:href="#b4" x="1345"/><use xlink:href="#b40" x="2009"/></g><g transform="translate(2482.8 0)"><rect x="0" y="0" width="149.83" height="52" rx="14" fill="#171A1F" stroke="#252931" stroke-width="1.2"/><circle cx="20" cy="26" r="5" fill="#C9F31D"/><g transform="translate(34 32.5) scale(0.01900 -0.01900)" fill="#EEEBE3"><use xlink:href="#b0"/><use xlink:href="#b1" x="538"/><use xlink:href="#b2" x="1135"/><use xlink:href="#b3" x="1764"/><use xlink:href="#b4" x="2340"/><use xlink:href="#b5" x="2987"/><use xlink:href="#b6" x="3547"/><use xlink:href="#b7" x="3969"/><use xlink:href="#b2" x="4237"/><use xlink:href="#b8" x="4865"/></g><rect x="161.83" y="0" width="102.65" height="52" rx="14" fill="#171A1F" stroke="#252931" stroke-width="1.2"/><circle cx="181.83" cy="26" r="5" fill="#C9F31D"/><g transform="translate(195.83 32.5) scale(0.01900 -0.01900)" fill="#EEEBE3"><use xlink:href="#b9"/><use xlink:href="#b3" x="668"/><use xlink:href="#b10" x="1246"/><use xlink:href="#b5" x="1822"/><use xlink:href="#b8" x="2382"/></g><rect x="276.48" y="0" width="113.42" height="52" rx="14" fill="#171A1F" stroke="#252931" stroke-width="1.2"/><circle cx="296.48" cy="26" r="5" fill="#C9F31D"/><g transform="translate(310.48 32.5) scale(0.01900 -0.01900)" fill="#EEEBE3"><use xlink:href="#b11"/><use xlink:href="#b3" x="761"/><use xlink:href="#b12" x="1323"/><use xlink:href="#b8" x="1889"/><use xlink:href="#b13" x="2305"/><use xlink:href="#b14" x="2526"/><use xlink:href="#b15" x="2799"/></g><rect x="401.9" y="0" width="104.51" height="52" rx="14" fill="#171A1F" stroke="#252931" stroke-width="1.2"/><circle cx="421.9" cy="26" r="5" fill="#C9F31D"/><g transform="translate(435.9 32.5) scale(0.01900 -0.01900)" fill="#EEEBE3"><use xlink:href="#b16"/><use xlink:href="#b17" x="644"/><use xlink:href="#b3" x="1255"/><use xlink:href="#b13" x="1836"/><use xlink:href="#b14" x="2057"/><use xlink:href="#b15" x="2330"/></g><rect x="518.41" y="0" width="167.74" height="52" rx="14" fill="#171A1F" stroke="#252931" stroke-width="1.2"/><circle cx="538.41" cy="26" r="5" fill="#C9F31D"/><g transform="translate(552.41 32.5) scale(0.01900 -0.01900)" fill="#EEEBE3"><use xlink:href="#b0"/><use xlink:href="#b10" x="496"/><use xlink:href="#b7" x="1072"/><use xlink:href="#b18" x="1340"/><use xlink:href="#b19" x="1606"/><use xlink:href="#b7" x="2451"/><use xlink:href="#b20" x="2719"/><use xlink:href="#b21" x="3339"/><use xlink:href="#b22" x="4205"/><use xlink:href="#b4" x="4893"/><use xlink:href="#b4" x="5550"/></g><rect x="698.15" y="0" width="185.62" height="52" rx="14" fill="#171A1F" stroke="#252931" stroke-width="1.2"/><circle cx="718.15" cy="26" r="5" fill="#C9F31D"/><g transform="translate(732.15 32.5) scale(0.01900 -0.01900)" fill="#EEEBE3"><use xlink:href="#b23"/><use xlink:href="#b6" x="569"/><use xlink:href="#b10" x="983"/><use xlink:href="#b24" x="1559"/><use xlink:href="#b3" x="2488"/><use xlink:href="#b6" x="3064"/><use xlink:href="#b25" x="3724"/><use xlink:href="#b26" x="4648"/><use xlink:href="#b8" x="5255"/><use xlink:href="#b7" x="5644"/><use xlink:href="#b26" x="5912"/><use xlink:href="#b20" x="6519"/></g><rect x="895.77" y="0" width="194.46" height="52" rx="14" fill="#171A1F" stroke="#252931" stroke-width="1.2"/><circle cx="915.77" cy="26" r="5" fill="#C9F31D"/><g transform="translate(929.77 32.5) scale(0.01900 -0.01900)" fill="#EEEBE3"><use xlink:href="#b0"/><use xlink:href="#b10" x="496"/><use xlink:href="#b20" x="1072"/><use xlink:href="#b4" x="1688"/><use xlink:href="#b8" x="2335"/><use xlink:href="#b10" x="2724"/><use xlink:href="#b5" x="3300"/><use xlink:href="#b27" x="3860"/><use xlink:href="#b28" x="4674"/><use xlink:href="#b17" x="5398"/><use xlink:href="#b3" x="6009"/><use xlink:href="#b6" x="6585"/><use xlink:href="#b1" x="7006"/></g><rect x="1102.23" y="0" width="124.4" height="52" rx="14" fill="#171A1F" stroke="#252931" stroke-width="1.2"/><circle cx="1122.23" cy="26" r="5" fill="#C9F31D"/><g transform="translate(1136.23 32.5) scale(0.01900 -0.01900)" fill="#EEEBE3"><use xlink:href="#b29"/><use xlink:href="#b17" x="553"/><use xlink:href="#b15" x="1164"/><use xlink:href="#b8" x="1703"/><use xlink:href="#b10" x="2092"/><use xlink:href="#b20" x="2668"/><use xlink:href="#b21" x="3288"/></g><rect x="1238.63" y="0" width="124.84" height="52" rx="14" fill="#171A1F" stroke="#252931" stroke-width="1.2"/><circle cx="1258.63" cy="26" r="5" fill="#C9F31D"/><g transform="translate(1272.63 32.5) scale(0.01900 -0.01900)" fill="#EEEBE3"><use xlink:href="#b9"/><use xlink:href="#b10" x="668"/><use xlink:href="#b21" x="1246"/><use xlink:href="#b7" x="1874"/><use xlink:href="#b12" x="2142"/><use xlink:href="#b30" x="2931"/><use xlink:href="#b31" x="3655"/></g><rect x="1375.47" y="0" width="140.57" height="52" rx="14" fill="#171A1F" stroke="#252931" stroke-width="1.2"/><circle cx="1395.47" cy="26" r="5" fill="#C9F31D"/><g transform="translate(1409.47 32.5) scale(0.01900 -0.01900)" fill="#EEEBE3"><use xlink:href="#b15"/><use xlink:href="#b32" x="540"/><use xlink:href="#b10" x="1159"/><use xlink:href="#b21" x="1737"/><use xlink:href="#b5" x="2365"/><use xlink:href="#b20" x="2925"/><use xlink:href="#b33" x="3544"/><use xlink:href="#b17" x="3888"/><use xlink:href="#b7" x="4499"/></g><rect x="1528.05" y="0" width="133.12" height="52" rx="14" fill="#171A1F" stroke="#252931" stroke-width="1.2"/><circle cx="1548.05" cy="26" r="5" fill="#C9F31D"/><g transform="translate(1562.05 32.5) scale(0.01900 -0.01900)" fill="#EEEBE3"><use xlink:href="#b9"/><use xlink:href="#b3" x="668"/><use xlink:href="#b5" x="1248"/><use xlink:href="#b32" x="1808"/><use xlink:href="#b10" x="2427"/><use xlink:href="#b6" x="3003"/><use xlink:href="#b8" x="3447"/><use xlink:href="#b15" x="3836"/></g><rect x="1673.17" y="0" width="85.99" height="52" rx="14" fill="#171A1F" stroke="#252931" stroke-width="1.2"/><circle cx="1693.17" cy="26" r="5" fill="#C9F31D"/><g transform="translate(1707.17 32.5) scale(0.01900 -0.01900)" fill="#EEEBE3"><use xlink:href="#b16"/><use xlink:href="#b7" x="665"/><use xlink:href="#b8" x="933"/><use xlink:href="#b3" x="1318"/></g><rect x="1771.16" y="0" width="169.26" height="52" rx="14" fill="#171A1F" stroke="#252931" stroke-width="1.2"/><circle cx="1791.16" cy="26" r="5" fill="#C9F31D"/><g transform="translate(1805.16 32.5) scale(0.01900 -0.01900)" fill="#EEEBE3"><use xlink:href="#b9"/><use xlink:href="#b3" x="668"/><use xlink:href="#b10" x="1246"/><use xlink:href="#b5" x="1822"/><use xlink:href="#b8" x="2382"/><use xlink:href="#b9" x="3009"/><use xlink:href="#b26" x="3675"/><use xlink:href="#b17" x="4282"/><use xlink:href="#b8" x="4894"/><use xlink:href="#b3" x="5279"/><use xlink:href="#b6" x="5855"/></g><rect x="1952.42" y="0" width="125.79" height="52" rx="14" fill="#171A1F" stroke="#252931" stroke-width="1.2"/><circle cx="1972.42" cy="26" r="5" fill="#C9F31D"/><g transform="translate(1986.42 32.5) scale(0.01900 -0.01900)" fill="#EEEBE3"><use xlink:href="#b20"/><use xlink:href="#b3" x="619"/><use xlink:href="#b12" x="1181"/><use xlink:href="#b8" x="1747"/><use xlink:href="#b34" x="2103"/><use xlink:href="#b7" x="2448"/><use xlink:href="#b20" x="2716"/><use xlink:href="#b8" x="3334"/><use xlink:href="#b18" x="3723"/></g><rect x="2090.21" y="0" width="144.09" height="52" rx="14" fill="#171A1F" stroke="#252931" stroke-width="1.2"/><circle cx="2110.21" cy="26" r="5" fill="#C9F31D"/><g transform="translate(2124.21 32.5) scale(0.01900 -0.01900)" fill="#EEEBE3"><use xlink:href="#b35"/><use xlink:href="#b10" x="358"/><use xlink:href="#b36" x="920"/><use xlink:href="#b10" x="1466"/><use xlink:href="#b4" x="2038"/><use xlink:href="#b5" x="2685"/><use xlink:href="#b6" x="3245"/><use xlink:href="#b7" x="3667"/><use xlink:href="#b2" x="3935"/><use xlink:href="#b8" x="4563"/></g><rect x="2246.3" y="0" width="112.93" height="52" rx="14" fill="#171A1F" stroke="#252931" stroke-width="1.2"/><circle cx="2266.3" cy="26" r="5" fill="#C9F31D"/><g transform="translate(2280.3 32.5) scale(0.01900 -0.01900)" fill="#EEEBE3"><use xlink:href="#b37"/><use xlink:href="#b0" x="716"/><use xlink:href="#b25" x="1278"/><use xlink:href="#b38" x="2202"/><use xlink:href="#b39" x="2708"/></g><rect x="2371.23" y="0" width="99.57" height="52" rx="14" fill="#171A1F" stroke="#252931" stroke-width="1.2"/><circle cx="2391.23" cy="26" r="5" fill="#C9F31D"/><g transform="translate(2405.23 32.5) scale(0.01900 -0.01900)" fill="#EEEBE3"><use xlink:href="#b22"/><use xlink:href="#b4" x="688"/><use xlink:href="#b4" x="1345"/><use xlink:href="#b40" x="2009"/></g></g></g></g>
<g transform="translate(0 124)"><g class="mq1"><rect x="0" y="0" width="118.59" height="52" rx="14" fill="#171A1F" stroke="#252931" stroke-width="1.2"/><circle cx="20" cy="26" r="5" fill="#FF6B3D"/><g transform="translate(34 32.5) scale(0.01900 -0.01900)" fill="#EEEBE3"><use xlink:href="#b11"/><use xlink:href="#b26" x="761"/><use xlink:href="#b21" x="1368"/><use xlink:href="#b3" x="1996"/><use xlink:href="#b13" x="2577"/><use xlink:href="#b14" x="2798"/><use xlink:href="#b15" x="3071"/></g><rect x="130.59" y="0" width="123.66" height="52" rx="14" fill="#171A1F" stroke="#252931" stroke-width="1.2"/><circle cx="150.59" cy="26" r="5" fill="#FF6B3D"/><g transform="translate(164.59 32.5) scale(0.01900 -0.01900)" fill="#EEEBE3"><use xlink:href="#b41"/><use xlink:href="#b12" x="612"/><use xlink:href="#b2" x="1163"/><use xlink:href="#b6" x="1791"/><use xlink:href="#b3" x="2208"/><use xlink:href="#b15" x="2790"/><use xlink:href="#b15" x="3338"/></g><rect x="266.25" y="0" width="98.43" height="52" rx="14" fill="#171A1F" stroke="#252931" stroke-width="1.2"/><circle cx="286.25" cy="26" r="5" fill="#FF6B3D"/><g transform="translate(300.25 32.5) scale(0.01900 -0.01900)" fill="#EEEBE3"><use xlink:href="#b37"/><use xlink:href="#b26" x="716"/><use xlink:href="#b20" x="1323"/><use xlink:href="#b26" x="1942"/></g><rect x="376.68" y="0" width="114.01" height="52" rx="14" fill="#171A1F" stroke="#252931" stroke-width="1.2"/><circle cx="396.68" cy="26" r="5" fill="#FF6B3D"/><g transform="translate(410.68 32.5) scale(0.01900 -0.01900)" fill="#EEEBE3"><use xlink:href="#b42"/><use xlink:href="#b6" x="634"/><use xlink:href="#b7" x="1056"/><use xlink:href="#b15" x="1324"/><use xlink:href="#b24" x="1864"/><use xlink:href="#b10" x="2793"/></g><rect x="502.69" y="0" width="160.45" height="52" rx="14" fill="#171A1F" stroke="#252931" stroke-width="1.2"/><circle cx="522.69" cy="26" r="5" fill="#FF6B3D"/><g transform="translate(536.69 32.5) scale(0.01900 -0.01900)" fill="#EEEBE3"><use xlink:href="#b43"/><use xlink:href="#b6" x="695"/><use xlink:href="#b7" x="1117"/><use xlink:href="#b44" x="1385"/><use xlink:href="#b44" x="1909"/><use xlink:href="#b18" x="2421"/><use xlink:href="#b3" x="2687"/><use xlink:href="#b45" x="3501"/><use xlink:href="#b9" x="4220"/><use xlink:href="#b25" x="4889"/></g><rect x="675.14" y="0" width="157.12" height="52" rx="14" fill="#171A1F" stroke="#252931" stroke-width="1.2"/><circle cx="695.14" cy="26" r="5" fill="#FF6B3D"/><g transform="translate(709.14 32.5) scale(0.01900 -0.01900)" fill="#EEEBE3"><use xlink:href="#b42"/><use xlink:href="#b26" x="636"/><use xlink:href="#b15" x="1247"/><use xlink:href="#b8" x="1786"/><use xlink:href="#b46" x="2175"/><use xlink:href="#b6" x="2770"/><use xlink:href="#b3" x="3187"/><use xlink:href="#b4" x="3763"/><use xlink:href="#b28" x="4409"/><use xlink:href="#b38" x="5130"/></g><rect x="844.26" y="0" width="128.51" height="52" rx="14" fill="#171A1F" stroke="#252931" stroke-width="1.2"/><circle cx="864.26" cy="26" r="5" fill="#FF6B3D"/><g transform="translate(878.26 32.5) scale(0.01900 -0.01900)" fill="#EEEBE3"><use xlink:href="#b25"/><use xlink:href="#b10" x="922"/><use xlink:href="#b6" x="1498"/><use xlink:href="#b7" x="1920"/><use xlink:href="#b10" x="2188"/><use xlink:href="#b43" x="2764"/><use xlink:href="#b47" x="3458"/></g><rect x="984.77" y="0" width="114.47" height="52" rx="14" fill="#171A1F" stroke="#252931" stroke-width="1.2"/><circle cx="1004.77" cy="26" r="5" fill="#FF6B3D"/><g transform="translate(1018.77 32.5) scale(0.01900 -0.01900)" fill="#EEEBE3"><use xlink:href="#b25"/><use xlink:href="#b1" x="922"/><use xlink:href="#b4" x="1518"/><use xlink:href="#b28" x="2164"/><use xlink:href="#b38" x="2885"/></g><rect x="1111.24" y="0" width="140.93" height="52" rx="14" fill="#171A1F" stroke="#252931" stroke-width="1.2"/><circle cx="1131.24" cy="26" r="5" fill="#FF6B3D"/><g transform="translate(1145.24 32.5) scale(0.01900 -0.01900)" fill="#EEEBE3"><use xlink:href="#b4"/><use xlink:href="#b17" x="647"/><use xlink:href="#b2" x="1258"/><use xlink:href="#b10" x="1887"/><use xlink:href="#b48" x="2463"/><use xlink:href="#b10" x="3092"/><use xlink:href="#b15" x="3667"/><use xlink:href="#b3" x="4210"/></g><rect x="1264.17" y="0" width="139.49" height="52" rx="14" fill="#171A1F" stroke="#252931" stroke-width="1.2"/><circle cx="1284.17" cy="26" r="5" fill="#FF6B3D"/><g transform="translate(1298.17 32.5) scale(0.01900 -0.01900)" fill="#EEEBE3"><use xlink:href="#b25"/><use xlink:href="#b26" x="924"/><use xlink:href="#b20" x="1531"/><use xlink:href="#b46" x="2150"/><use xlink:href="#b26" x="2735"/><use xlink:href="#b43" x="3342"/><use xlink:href="#b47" x="4036"/></g><rect x="1415.66" y="0" width="113.12" height="52" rx="14" fill="#171A1F" stroke="#252931" stroke-width="1.2"/><circle cx="1435.66" cy="26" r="5" fill="#FF6B3D"/><g transform="translate(1449.66 32.5) scale(0.01900 -0.01900)" fill="#EEEBE3"><use xlink:href="#b49"/><use xlink:href="#b17" x="666"/><use xlink:href="#b8" x="1278"/><use xlink:href="#b32" x="1667"/><use xlink:href="#b13" x="2289"/><use xlink:href="#b14" x="2510"/><use xlink:href="#b15" x="2783"/></g><rect x="1540.78" y="0" width="83.99" height="52" rx="14" fill="#171A1F" stroke="#252931" stroke-width="1.2"/><circle cx="1560.78" cy="26" r="5" fill="#FF6B3D"/><g transform="translate(1574.78 32.5) scale(0.01900 -0.01900)" fill="#EEEBE3"><use xlink:href="#b29"/><use xlink:href="#b26" x="554"/><use xlink:href="#b21" x="1161"/></g><rect x="1636.77" y="0" width="173.99" height="52" rx="14" fill="#171A1F" stroke="#252931" stroke-width="1.2"/><circle cx="1656.77" cy="26" r="5" fill="#FF6B3D"/><g transform="translate(1670.77 32.5) scale(0.01900 -0.01900)" fill="#EEEBE3"><use xlink:href="#b22"/><use xlink:href="#b18" x="676"/><use xlink:href="#b26" x="942"/><use xlink:href="#b17" x="1549"/><use xlink:href="#b21" x="2160"/><use xlink:href="#b50" x="2788"/><use xlink:href="#b18" x="3177"/><use xlink:href="#b10" x="3443"/><use xlink:href="#b6" x="4019"/><use xlink:href="#b3" x="4436"/><use xlink:href="#b9" x="5250"/><use xlink:href="#b51" x="5933"/></g><rect x="1822.77" y="0" width="118.72" height="52" rx="14" fill="#171A1F" stroke="#252931" stroke-width="1.2"/><circle cx="1842.77" cy="26" r="5" fill="#FF6B3D"/><g transform="translate(1856.77 32.5) scale(0.01900 -0.01900)" fill="#EEEBE3"><use xlink:href="#b9"/><use xlink:href="#b3" x="668"/><use xlink:href="#b15" x="1250"/><use xlink:href="#b3" x="1793"/><use xlink:href="#b20" x="2369"/><use xlink:href="#b21" x="2989"/></g><rect x="1953.49" y="0" width="132.84" height="52" rx="14" fill="#171A1F" stroke="#252931" stroke-width="1.2"/><circle cx="1973.49" cy="26" r="5" fill="#FF6B3D"/><g transform="translate(1987.49 32.5) scale(0.01900 -0.01900)" fill="#EEEBE3"><use xlink:href="#b25"/><use xlink:href="#b7" x="924"/><use xlink:href="#b21" x="1192"/><use xlink:href="#b8" x="1823"/><use xlink:href="#b6" x="2212"/><use xlink:href="#b10" x="2626"/><use xlink:href="#b20" x="3202"/><use xlink:href="#b15" x="3821"/></g><rect x="2098.33" y="0" width="115.04" height="52" rx="14" fill="#171A1F" stroke="#252931" stroke-width="1.2"/><circle cx="2118.33" cy="26" r="5" fill="#FF6B3D"/><g transform="translate(2132.33 32.5) scale(0.01900 -0.01900)" fill="#EEEBE3"><use xlink:href="#b43"/><use xlink:href="#b26" x="694"/><use xlink:href="#b5" x="1301"/><use xlink:href="#b27" x="1861"/><use xlink:href="#b3" x="2425"/><use xlink:href="#b6" x="3001"/></g><rect x="2225.37" y="0" width="107.27" height="52" rx="14" fill="#171A1F" stroke="#252931" stroke-width="1.2"/><circle cx="2245.37" cy="26" r="5" fill="#FF6B3D"/><g transform="translate(2259.37 32.5) scale(0.01900 -0.01900)" fill="#EEEBE3"><use xlink:href="#b16"/><use xlink:href="#b3" x="619"/><use xlink:href="#b6" x="1195"/><use xlink:href="#b5" x="1612"/><use xlink:href="#b3" x="2172"/><use xlink:href="#b18" x="2748"/></g><rect x="2344.63" y="0" width="111.66" height="52" rx="14" fill="#171A1F" stroke="#252931" stroke-width="1.2"/><circle cx="2364.63" cy="26" r="5" fill="#FF6B3D"/><g transform="translate(2378.63 32.5) scale(0.01900 -0.01900)" fill="#EEEBE3"><use xlink:href="#b11"/><use xlink:href="#b3" x="761"/><use xlink:href="#b8" x="1337"/><use xlink:href="#b18" x="1726"/><use xlink:href="#b7" x="1992"/><use xlink:href="#b50" x="2260"/><use xlink:href="#b1" x="2648"/></g><g transform="translate(2468.29 0)"><rect x="0" y="0" width="118.59" height="52" rx="14" fill="#171A1F" stroke="#252931" stroke-width="1.2"/><circle cx="20" cy="26" r="5" fill="#FF6B3D"/><g transform="translate(34 32.5) scale(0.01900 -0.01900)" fill="#EEEBE3"><use xlink:href="#b11"/><use xlink:href="#b26" x="761"/><use xlink:href="#b21" x="1368"/><use xlink:href="#b3" x="1996"/><use xlink:href="#b13" x="2577"/><use xlink:href="#b14" x="2798"/><use xlink:href="#b15" x="3071"/></g><rect x="130.59" y="0" width="123.66" height="52" rx="14" fill="#171A1F" stroke="#252931" stroke-width="1.2"/><circle cx="150.59" cy="26" r="5" fill="#FF6B3D"/><g transform="translate(164.59 32.5) scale(0.01900 -0.01900)" fill="#EEEBE3"><use xlink:href="#b41"/><use xlink:href="#b12" x="612"/><use xlink:href="#b2" x="1163"/><use xlink:href="#b6" x="1791"/><use xlink:href="#b3" x="2208"/><use xlink:href="#b15" x="2790"/><use xlink:href="#b15" x="3338"/></g><rect x="266.25" y="0" width="98.43" height="52" rx="14" fill="#171A1F" stroke="#252931" stroke-width="1.2"/><circle cx="286.25" cy="26" r="5" fill="#FF6B3D"/><g transform="translate(300.25 32.5) scale(0.01900 -0.01900)" fill="#EEEBE3"><use xlink:href="#b37"/><use xlink:href="#b26" x="716"/><use xlink:href="#b20" x="1323"/><use xlink:href="#b26" x="1942"/></g><rect x="376.68" y="0" width="114.01" height="52" rx="14" fill="#171A1F" stroke="#252931" stroke-width="1.2"/><circle cx="396.68" cy="26" r="5" fill="#FF6B3D"/><g transform="translate(410.68 32.5) scale(0.01900 -0.01900)" fill="#EEEBE3"><use xlink:href="#b42"/><use xlink:href="#b6" x="634"/><use xlink:href="#b7" x="1056"/><use xlink:href="#b15" x="1324"/><use xlink:href="#b24" x="1864"/><use xlink:href="#b10" x="2793"/></g><rect x="502.69" y="0" width="160.45" height="52" rx="14" fill="#171A1F" stroke="#252931" stroke-width="1.2"/><circle cx="522.69" cy="26" r="5" fill="#FF6B3D"/><g transform="translate(536.69 32.5) scale(0.01900 -0.01900)" fill="#EEEBE3"><use xlink:href="#b43"/><use xlink:href="#b6" x="695"/><use xlink:href="#b7" x="1117"/><use xlink:href="#b44" x="1385"/><use xlink:href="#b44" x="1909"/><use xlink:href="#b18" x="2421"/><use xlink:href="#b3" x="2687"/><use xlink:href="#b45" x="3501"/><use xlink:href="#b9" x="4220"/><use xlink:href="#b25" x="4889"/></g><rect x="675.14" y="0" width="157.12" height="52" rx="14" fill="#171A1F" stroke="#252931" stroke-width="1.2"/><circle cx="695.14" cy="26" r="5" fill="#FF6B3D"/><g transform="translate(709.14 32.5) scale(0.01900 -0.01900)" fill="#EEEBE3"><use xlink:href="#b42"/><use xlink:href="#b26" x="636"/><use xlink:href="#b15" x="1247"/><use xlink:href="#b8" x="1786"/><use xlink:href="#b46" x="2175"/><use xlink:href="#b6" x="2770"/><use xlink:href="#b3" x="3187"/><use xlink:href="#b4" x="3763"/><use xlink:href="#b28" x="4409"/><use xlink:href="#b38" x="5130"/></g><rect x="844.26" y="0" width="128.51" height="52" rx="14" fill="#171A1F" stroke="#252931" stroke-width="1.2"/><circle cx="864.26" cy="26" r="5" fill="#FF6B3D"/><g transform="translate(878.26 32.5) scale(0.01900 -0.01900)" fill="#EEEBE3"><use xlink:href="#b25"/><use xlink:href="#b10" x="922"/><use xlink:href="#b6" x="1498"/><use xlink:href="#b7" x="1920"/><use xlink:href="#b10" x="2188"/><use xlink:href="#b43" x="2764"/><use xlink:href="#b47" x="3458"/></g><rect x="984.77" y="0" width="114.47" height="52" rx="14" fill="#171A1F" stroke="#252931" stroke-width="1.2"/><circle cx="1004.77" cy="26" r="5" fill="#FF6B3D"/><g transform="translate(1018.77 32.5) scale(0.01900 -0.01900)" fill="#EEEBE3"><use xlink:href="#b25"/><use xlink:href="#b1" x="922"/><use xlink:href="#b4" x="1518"/><use xlink:href="#b28" x="2164"/><use xlink:href="#b38" x="2885"/></g><rect x="1111.24" y="0" width="140.93" height="52" rx="14" fill="#171A1F" stroke="#252931" stroke-width="1.2"/><circle cx="1131.24" cy="26" r="5" fill="#FF6B3D"/><g transform="translate(1145.24 32.5) scale(0.01900 -0.01900)" fill="#EEEBE3"><use xlink:href="#b4"/><use xlink:href="#b17" x="647"/><use xlink:href="#b2" x="1258"/><use xlink:href="#b10" x="1887"/><use xlink:href="#b48" x="2463"/><use xlink:href="#b10" x="3092"/><use xlink:href="#b15" x="3667"/><use xlink:href="#b3" x="4210"/></g><rect x="1264.17" y="0" width="139.49" height="52" rx="14" fill="#171A1F" stroke="#252931" stroke-width="1.2"/><circle cx="1284.17" cy="26" r="5" fill="#FF6B3D"/><g transform="translate(1298.17 32.5) scale(0.01900 -0.01900)" fill="#EEEBE3"><use xlink:href="#b25"/><use xlink:href="#b26" x="924"/><use xlink:href="#b20" x="1531"/><use xlink:href="#b46" x="2150"/><use xlink:href="#b26" x="2735"/><use xlink:href="#b43" x="3342"/><use xlink:href="#b47" x="4036"/></g><rect x="1415.66" y="0" width="113.12" height="52" rx="14" fill="#171A1F" stroke="#252931" stroke-width="1.2"/><circle cx="1435.66" cy="26" r="5" fill="#FF6B3D"/><g transform="translate(1449.66 32.5) scale(0.01900 -0.01900)" fill="#EEEBE3"><use xlink:href="#b49"/><use xlink:href="#b17" x="666"/><use xlink:href="#b8" x="1278"/><use xlink:href="#b32" x="1667"/><use xlink:href="#b13" x="2289"/><use xlink:href="#b14" x="2510"/><use xlink:href="#b15" x="2783"/></g><rect x="1540.78" y="0" width="83.99" height="52" rx="14" fill="#171A1F" stroke="#252931" stroke-width="1.2"/><circle cx="1560.78" cy="26" r="5" fill="#FF6B3D"/><g transform="translate(1574.78 32.5) scale(0.01900 -0.01900)" fill="#EEEBE3"><use xlink:href="#b29"/><use xlink:href="#b26" x="554"/><use xlink:href="#b21" x="1161"/></g><rect x="1636.77" y="0" width="173.99" height="52" rx="14" fill="#171A1F" stroke="#252931" stroke-width="1.2"/><circle cx="1656.77" cy="26" r="5" fill="#FF6B3D"/><g transform="translate(1670.77 32.5) scale(0.01900 -0.01900)" fill="#EEEBE3"><use xlink:href="#b22"/><use xlink:href="#b18" x="676"/><use xlink:href="#b26" x="942"/><use xlink:href="#b17" x="1549"/><use xlink:href="#b21" x="2160"/><use xlink:href="#b50" x="2788"/><use xlink:href="#b18" x="3177"/><use xlink:href="#b10" x="3443"/><use xlink:href="#b6" x="4019"/><use xlink:href="#b3" x="4436"/><use xlink:href="#b9" x="5250"/><use xlink:href="#b51" x="5933"/></g><rect x="1822.77" y="0" width="118.72" height="52" rx="14" fill="#171A1F" stroke="#252931" stroke-width="1.2"/><circle cx="1842.77" cy="26" r="5" fill="#FF6B3D"/><g transform="translate(1856.77 32.5) scale(0.01900 -0.01900)" fill="#EEEBE3"><use xlink:href="#b9"/><use xlink:href="#b3" x="668"/><use xlink:href="#b15" x="1250"/><use xlink:href="#b3" x="1793"/><use xlink:href="#b20" x="2369"/><use xlink:href="#b21" x="2989"/></g><rect x="1953.49" y="0" width="132.84" height="52" rx="14" fill="#171A1F" stroke="#252931" stroke-width="1.2"/><circle cx="1973.49" cy="26" r="5" fill="#FF6B3D"/><g transform="translate(1987.49 32.5) scale(0.01900 -0.01900)" fill="#EEEBE3"><use xlink:href="#b25"/><use xlink:href="#b7" x="924"/><use xlink:href="#b21" x="1192"/><use xlink:href="#b8" x="1823"/><use xlink:href="#b6" x="2212"/><use xlink:href="#b10" x="2626"/><use xlink:href="#b20" x="3202"/><use xlink:href="#b15" x="3821"/></g><rect x="2098.33" y="0" width="115.04" height="52" rx="14" fill="#171A1F" stroke="#252931" stroke-width="1.2"/><circle cx="2118.33" cy="26" r="5" fill="#FF6B3D"/><g transform="translate(2132.33 32.5) scale(0.01900 -0.01900)" fill="#EEEBE3"><use xlink:href="#b43"/><use xlink:href="#b26" x="694"/><use xlink:href="#b5" x="1301"/><use xlink:href="#b27" x="1861"/><use xlink:href="#b3" x="2425"/><use xlink:href="#b6" x="3001"/></g><rect x="2225.37" y="0" width="107.27" height="52" rx="14" fill="#171A1F" stroke="#252931" stroke-width="1.2"/><circle cx="2245.37" cy="26" r="5" fill="#FF6B3D"/><g transform="translate(2259.37 32.5) scale(0.01900 -0.01900)" fill="#EEEBE3"><use xlink:href="#b16"/><use xlink:href="#b3" x="619"/><use xlink:href="#b6" x="1195"/><use xlink:href="#b5" x="1612"/><use xlink:href="#b3" x="2172"/><use xlink:href="#b18" x="2748"/></g><rect x="2344.63" y="0" width="111.66" height="52" rx="14" fill="#171A1F" stroke="#252931" stroke-width="1.2"/><circle cx="2364.63" cy="26" r="5" fill="#FF6B3D"/><g transform="translate(2378.63 32.5) scale(0.01900 -0.01900)" fill="#EEEBE3"><use xlink:href="#b11"/><use xlink:href="#b3" x="761"/><use xlink:href="#b8" x="1337"/><use xlink:href="#b18" x="1726"/><use xlink:href="#b7" x="1992"/><use xlink:href="#b50" x="2260"/><use xlink:href="#b1" x="2648"/></g></g></g></g>
<g transform="translate(0 206)"><g class="mq2"><rect x="0" y="0" width="115.91" height="52" rx="14" fill="#171A1F" stroke="#252931" stroke-width="1.2"/><circle cx="20" cy="26" r="5" fill="#7CC4FF"/><g transform="translate(34 32.5) scale(0.01900 -0.01900)" fill="#EEEBE3"><use xlink:href="#b42"/><use xlink:href="#b1" x="636"/><use xlink:href="#b8" x="1235"/><use xlink:href="#b32" x="1624"/><use xlink:href="#b26" x="2243"/><use xlink:href="#b20" x="2850"/></g><rect x="127.91" y="0" width="155.66" height="52" rx="14" fill="#171A1F" stroke="#252931" stroke-width="1.2"/><circle cx="147.91" cy="26" r="5" fill="#7CC4FF"/><g transform="translate(161.91 32.5) scale(0.01900 -0.01900)" fill="#EEEBE3"><use xlink:href="#b0"/><use xlink:href="#b3" x="492"/><use xlink:href="#b20" x="1068"/><use xlink:href="#b15" x="1687"/><use xlink:href="#b26" x="2232"/><use xlink:href="#b6" x="2839"/><use xlink:href="#b23" x="3261"/><use xlink:href="#b18" x="3846"/><use xlink:href="#b26" x="4112"/><use xlink:href="#b19" x="4716"/></g><rect x="295.57" y="0" width="102.46" height="52" rx="14" fill="#171A1F" stroke="#252931" stroke-width="1.2"/><circle cx="315.57" cy="26" r="5" fill="#7CC4FF"/><g transform="translate(329.57 32.5) scale(0.01900 -0.01900)" fill="#EEEBE3"><use xlink:href="#b52"/><use xlink:href="#b3" x="657"/><use xlink:href="#b6" x="1233"/><use xlink:href="#b10" x="1647"/><use xlink:href="#b15" x="2222"/></g><rect x="410.03" y="0" width="124.2" height="52" rx="14" fill="#171A1F" stroke="#252931" stroke-width="1.2"/><circle cx="430.03" cy="26" r="5" fill="#7CC4FF"/><g transform="translate(444.03 32.5) scale(0.01900 -0.01900)" fill="#EEEBE3"><use xlink:href="#b42"/><use xlink:href="#b1" x="636"/><use xlink:href="#b0" x="1209"/><use xlink:href="#b26" x="1702"/><use xlink:href="#b6" x="2309"/><use xlink:href="#b5" x="2726"/><use xlink:href="#b32" x="3286"/></g><rect x="546.22" y="0" width="152.16" height="52" rx="14" fill="#171A1F" stroke="#252931" stroke-width="1.2"/><circle cx="566.22" cy="26" r="5" fill="#7CC4FF"/><g transform="translate(580.22 32.5) scale(0.01900 -0.01900)" fill="#EEEBE3"><use xlink:href="#b15"/><use xlink:href="#b5" x="543"/><use xlink:href="#b7" x="1103"/><use xlink:href="#b27" x="1371"/><use xlink:href="#b7" x="1947"/><use xlink:href="#b8" x="2215"/><use xlink:href="#b34" x="2571"/><use xlink:href="#b18" x="2916"/><use xlink:href="#b3" x="3182"/><use xlink:href="#b10" x="3760"/><use xlink:href="#b6" x="4336"/><use xlink:href="#b20" x="4758"/></g><rect x="710.39" y="0" width="117.77" height="52" rx="14" fill="#171A1F" stroke="#252931" stroke-width="1.2"/><circle cx="730.39" cy="26" r="5" fill="#7CC4FF"/><g transform="translate(744.39 32.5) scale(0.01900 -0.01900)" fill="#EEEBE3"><use xlink:href="#b2"/><use xlink:href="#b10" x="629"/><use xlink:href="#b20" x="1205"/><use xlink:href="#b21" x="1825"/><use xlink:href="#b10" x="2453"/><use xlink:href="#b15" x="3028"/></g><rect x="840.16" y="0" width="134.72" height="52" rx="14" fill="#171A1F" stroke="#252931" stroke-width="1.2"/><circle cx="860.16" cy="26" r="5" fill="#7CC4FF"/><g transform="translate(874.16 32.5) scale(0.01900 -0.01900)" fill="#EEEBE3"><use xlink:href="#b4"/><use xlink:href="#b8" x="647"/><use xlink:href="#b6" x="1036"/><use xlink:href="#b3" x="1453"/><use xlink:href="#b10" x="2031"/><use xlink:href="#b24" x="2607"/><use xlink:href="#b18" x="3536"/><use xlink:href="#b7" x="3802"/><use xlink:href="#b8" x="4070"/></g><rect x="986.88" y="0" width="169.07" height="52" rx="14" fill="#171A1F" stroke="#252931" stroke-width="1.2"/><circle cx="1006.88" cy="26" r="5" fill="#7CC4FF"/><g transform="translate(1020.88 32.5) scale(0.01900 -0.01900)" fill="#EEEBE3"><use xlink:href="#b37"/><use xlink:href="#b17" x="716"/><use xlink:href="#b46" x="1327"/><use xlink:href="#b46" x="1924"/><use xlink:href="#b7" x="2519"/><use xlink:href="#b20" x="2787"/><use xlink:href="#b46" x="3406"/><use xlink:href="#b23" x="4001"/><use xlink:href="#b10" x="4555"/><use xlink:href="#b5" x="5131"/><use xlink:href="#b3" x="5691"/></g><rect x="1167.95" y="0" width="130.67" height="52" rx="14" fill="#171A1F" stroke="#252931" stroke-width="1.2"/><circle cx="1187.95" cy="26" r="5" fill="#7CC4FF"/><g transform="translate(1201.95 32.5) scale(0.01900 -0.01900)" fill="#EEEBE3"><use xlink:href="#b4"/><use xlink:href="#b10" x="647"/><use xlink:href="#b15" x="1222"/><use xlink:href="#b8" x="1761"/><use xlink:href="#b6" x="2150"/><use xlink:href="#b10" x="2564"/><use xlink:href="#b19" x="3133"/><use xlink:href="#b7" x="3978"/></g><rect x="1310.63" y="0" width="149.01" height="52" rx="14" fill="#171A1F" stroke="#252931" stroke-width="1.2"/><circle cx="1330.63" cy="26" r="5" fill="#7CC4FF"/><g transform="translate(1344.63 32.5) scale(0.01900 -0.01900)" fill="#EEEBE3"><use xlink:href="#b42"/><use xlink:href="#b18" x="637"/><use xlink:href="#b10" x="903"/><use xlink:href="#b1" x="1475"/><use xlink:href="#b19" x="2074"/><use xlink:href="#b6" x="2919"/><use xlink:href="#b7" x="3341"/><use xlink:href="#b46" x="3609"/><use xlink:href="#b32" x="4204"/><use xlink:href="#b8" x="4822"/></g><rect x="1471.64" y="0" width="103.73" height="52" rx="14" fill="#171A1F" stroke="#252931" stroke-width="1.2"/><circle cx="1491.64" cy="26" r="5" fill="#7CC4FF"/><g transform="translate(1505.64 32.5) scale(0.01900 -0.01900)" fill="#EEEBE3"><use xlink:href="#b16"/><use xlink:href="#b7" x="665"/><use xlink:href="#b8" x="933"/><use xlink:href="#b3" x="1318"/><use xlink:href="#b15" x="1900"/><use xlink:href="#b8" x="2439"/></g><rect x="1587.37" y="0" width="187.1" height="52" rx="14" fill="#171A1F" stroke="#252931" stroke-width="1.2"/><circle cx="1607.37" cy="26" r="5" fill="#7CC4FF"/><g transform="translate(1621.37 32.5) scale(0.01900 -0.01900)" fill="#EEEBE3"><use xlink:href="#b53"/><use xlink:href="#b7" x="714"/><use xlink:href="#b8" x="982"/><use xlink:href="#b37" x="1371"/><use xlink:href="#b17" x="2087"/><use xlink:href="#b48" x="2698"/><use xlink:href="#b49" x="3564"/><use xlink:href="#b5" x="4234"/><use xlink:href="#b8" x="4794"/><use xlink:href="#b7" x="5183"/><use xlink:href="#b26" x="5451"/><use xlink:href="#b20" x="6058"/><use xlink:href="#b15" x="6677"/></g><rect x="1786.47" y="0" width="108.03" height="52" rx="14" fill="#171A1F" stroke="#252931" stroke-width="1.2"/><circle cx="1806.47" cy="26" r="5" fill="#7CC4FF"/><g transform="translate(1820.47 32.5) scale(0.01900 -0.01900)" fill="#EEEBE3"><use xlink:href="#b47"/><use xlink:href="#b7" x="674"/><use xlink:href="#b26" x="942"/><use xlink:href="#b24" x="1549"/><use xlink:href="#b3" x="2478"/></g><rect x="1906.5" y="0" width="107.7" height="52" rx="14" fill="#171A1F" stroke="#252931" stroke-width="1.2"/><circle cx="1926.5" cy="26" r="5" fill="#7CC4FF"/><g transform="translate(1940.5 32.5) scale(0.01900 -0.01900)" fill="#EEEBE3"><use xlink:href="#b41"/><use xlink:href="#b4" x="608"/><use xlink:href="#b38" x="1255"/><use xlink:href="#b7" x="1762"/><use xlink:href="#b20" x="2030"/><use xlink:href="#b8" x="2648"/></g><rect x="2026.2" y="0" width="106.14" height="52" rx="14" fill="#171A1F" stroke="#252931" stroke-width="1.2"/><circle cx="2046.2" cy="26" r="5" fill="#7CC4FF"/><g transform="translate(2060.2 32.5) scale(0.01900 -0.01900)" fill="#EEEBE3"><use xlink:href="#b23"/><use xlink:href="#b7" x="587"/><use xlink:href="#b46" x="855"/><use xlink:href="#b24" x="1450"/><use xlink:href="#b10" x="2379"/></g><rect x="2144.35" y="0" width="165.08" height="52" rx="14" fill="#171A1F" stroke="#252931" stroke-width="1.2"/><circle cx="2164.35" cy="26" r="5" fill="#7CC4FF"/><g transform="translate(2178.35 32.5) scale(0.01900 -0.01900)" fill="#EEEBE3"><use xlink:href="#b22"/><use xlink:href="#b18" x="676"/><use xlink:href="#b10" x="942"/><use xlink:href="#b17" x="1518"/><use xlink:href="#b21" x="2129"/><use xlink:href="#b3" x="2757"/><use xlink:href="#b22" x="3571"/><use xlink:href="#b26" x="4246"/><use xlink:href="#b21" x="4853"/><use xlink:href="#b3" x="5481"/></g><rect x="2321.43" y="0" width="107.44" height="52" rx="14" fill="#171A1F" stroke="#252931" stroke-width="1.2"/><circle cx="2341.43" cy="26" r="5" fill="#7CC4FF"/><g transform="translate(2355.43 32.5) scale(0.01900 -0.01900)" fill="#EEEBE3"><use xlink:href="#b22"/><use xlink:href="#b26" x="675"/><use xlink:href="#b21" x="1282"/><use xlink:href="#b3" x="1910"/><use xlink:href="#b12" x="2472"/></g><g transform="translate(2440.87 0)"><rect x="0" y="0" width="115.91" height="52" rx="14" fill="#171A1F" stroke="#252931" stroke-width="1.2"/><circle cx="20" cy="26" r="5" fill="#7CC4FF"/><g transform="translate(34 32.5) scale(0.01900 -0.01900)" fill="#EEEBE3"><use xlink:href="#b42"/><use xlink:href="#b1" x="636"/><use xlink:href="#b8" x="1235"/><use xlink:href="#b32" x="1624"/><use xlink:href="#b26" x="2243"/><use xlink:href="#b20" x="2850"/></g><rect x="127.91" y="0" width="155.66" height="52" rx="14" fill="#171A1F" stroke="#252931" stroke-width="1.2"/><circle cx="147.91" cy="26" r="5" fill="#7CC4FF"/><g transform="translate(161.91 32.5) scale(0.01900 -0.01900)" fill="#EEEBE3"><use xlink:href="#b0"/><use xlink:href="#b3" x="492"/><use xlink:href="#b20" x="1068"/><use xlink:href="#b15" x="1687"/><use xlink:href="#b26" x="2232"/><use xlink:href="#b6" x="2839"/><use xlink:href="#b23" x="3261"/><use xlink:href="#b18" x="3846"/><use xlink:href="#b26" x="4112"/><use xlink:href="#b19" x="4716"/></g><rect x="295.57" y="0" width="102.46" height="52" rx="14" fill="#171A1F" stroke="#252931" stroke-width="1.2"/><circle cx="315.57" cy="26" r="5" fill="#7CC4FF"/><g transform="translate(329.57 32.5) scale(0.01900 -0.01900)" fill="#EEEBE3"><use xlink:href="#b52"/><use xlink:href="#b3" x="657"/><use xlink:href="#b6" x="1233"/><use xlink:href="#b10" x="1647"/><use xlink:href="#b15" x="2222"/></g><rect x="410.03" y="0" width="124.2" height="52" rx="14" fill="#171A1F" stroke="#252931" stroke-width="1.2"/><circle cx="430.03" cy="26" r="5" fill="#7CC4FF"/><g transform="translate(444.03 32.5) scale(0.01900 -0.01900)" fill="#EEEBE3"><use xlink:href="#b42"/><use xlink:href="#b1" x="636"/><use xlink:href="#b0" x="1209"/><use xlink:href="#b26" x="1702"/><use xlink:href="#b6" x="2309"/><use xlink:href="#b5" x="2726"/><use xlink:href="#b32" x="3286"/></g><rect x="546.22" y="0" width="152.16" height="52" rx="14" fill="#171A1F" stroke="#252931" stroke-width="1.2"/><circle cx="566.22" cy="26" r="5" fill="#7CC4FF"/><g transform="translate(580.22 32.5) scale(0.01900 -0.01900)" fill="#EEEBE3"><use xlink:href="#b15"/><use xlink:href="#b5" x="543"/><use xlink:href="#b7" x="1103"/><use xlink:href="#b27" x="1371"/><use xlink:href="#b7" x="1947"/><use xlink:href="#b8" x="2215"/><use xlink:href="#b34" x="2571"/><use xlink:href="#b18" x="2916"/><use xlink:href="#b3" x="3182"/><use xlink:href="#b10" x="3760"/><use xlink:href="#b6" x="4336"/><use xlink:href="#b20" x="4758"/></g><rect x="710.39" y="0" width="117.77" height="52" rx="14" fill="#171A1F" stroke="#252931" stroke-width="1.2"/><circle cx="730.39" cy="26" r="5" fill="#7CC4FF"/><g transform="translate(744.39 32.5) scale(0.01900 -0.01900)" fill="#EEEBE3"><use xlink:href="#b2"/><use xlink:href="#b10" x="629"/><use xlink:href="#b20" x="1205"/><use xlink:href="#b21" x="1825"/><use xlink:href="#b10" x="2453"/><use xlink:href="#b15" x="3028"/></g><rect x="840.16" y="0" width="134.72" height="52" rx="14" fill="#171A1F" stroke="#252931" stroke-width="1.2"/><circle cx="860.16" cy="26" r="5" fill="#7CC4FF"/><g transform="translate(874.16 32.5) scale(0.01900 -0.01900)" fill="#EEEBE3"><use xlink:href="#b4"/><use xlink:href="#b8" x="647"/><use xlink:href="#b6" x="1036"/><use xlink:href="#b3" x="1453"/><use xlink:href="#b10" x="2031"/><use xlink:href="#b24" x="2607"/><use xlink:href="#b18" x="3536"/><use xlink:href="#b7" x="3802"/><use xlink:href="#b8" x="4070"/></g><rect x="986.88" y="0" width="169.07" height="52" rx="14" fill="#171A1F" stroke="#252931" stroke-width="1.2"/><circle cx="1006.88" cy="26" r="5" fill="#7CC4FF"/><g transform="translate(1020.88 32.5) scale(0.01900 -0.01900)" fill="#EEEBE3"><use xlink:href="#b37"/><use xlink:href="#b17" x="716"/><use xlink:href="#b46" x="1327"/><use xlink:href="#b46" x="1924"/><use xlink:href="#b7" x="2519"/><use xlink:href="#b20" x="2787"/><use xlink:href="#b46" x="3406"/><use xlink:href="#b23" x="4001"/><use xlink:href="#b10" x="4555"/><use xlink:href="#b5" x="5131"/><use xlink:href="#b3" x="5691"/></g><rect x="1167.95" y="0" width="130.67" height="52" rx="14" fill="#171A1F" stroke="#252931" stroke-width="1.2"/><circle cx="1187.95" cy="26" r="5" fill="#7CC4FF"/><g transform="translate(1201.95 32.5) scale(0.01900 -0.01900)" fill="#EEEBE3"><use xlink:href="#b4"/><use xlink:href="#b10" x="647"/><use xlink:href="#b15" x="1222"/><use xlink:href="#b8" x="1761"/><use xlink:href="#b6" x="2150"/><use xlink:href="#b10" x="2564"/><use xlink:href="#b19" x="3133"/><use xlink:href="#b7" x="3978"/></g><rect x="1310.63" y="0" width="149.01" height="52" rx="14" fill="#171A1F" stroke="#252931" stroke-width="1.2"/><circle cx="1330.63" cy="26" r="5" fill="#7CC4FF"/><g transform="translate(1344.63 32.5) scale(0.01900 -0.01900)" fill="#EEEBE3"><use xlink:href="#b42"/><use xlink:href="#b18" x="637"/><use xlink:href="#b10" x="903"/><use xlink:href="#b1" x="1475"/><use xlink:href="#b19" x="2074"/><use xlink:href="#b6" x="2919"/><use xlink:href="#b7" x="3341"/><use xlink:href="#b46" x="3609"/><use xlink:href="#b32" x="4204"/><use xlink:href="#b8" x="4822"/></g><rect x="1471.64" y="0" width="103.73" height="52" rx="14" fill="#171A1F" stroke="#252931" stroke-width="1.2"/><circle cx="1491.64" cy="26" r="5" fill="#7CC4FF"/><g transform="translate(1505.64 32.5) scale(0.01900 -0.01900)" fill="#EEEBE3"><use xlink:href="#b16"/><use xlink:href="#b7" x="665"/><use xlink:href="#b8" x="933"/><use xlink:href="#b3" x="1318"/><use xlink:href="#b15" x="1900"/><use xlink:href="#b8" x="2439"/></g><rect x="1587.37" y="0" width="187.1" height="52" rx="14" fill="#171A1F" stroke="#252931" stroke-width="1.2"/><circle cx="1607.37" cy="26" r="5" fill="#7CC4FF"/><g transform="translate(1621.37 32.5) scale(0.01900 -0.01900)" fill="#EEEBE3"><use xlink:href="#b53"/><use xlink:href="#b7" x="714"/><use xlink:href="#b8" x="982"/><use xlink:href="#b37" x="1371"/><use xlink:href="#b17" x="2087"/><use xlink:href="#b48" x="2698"/><use xlink:href="#b49" x="3564"/><use xlink:href="#b5" x="4234"/><use xlink:href="#b8" x="4794"/><use xlink:href="#b7" x="5183"/><use xlink:href="#b26" x="5451"/><use xlink:href="#b20" x="6058"/><use xlink:href="#b15" x="6677"/></g><rect x="1786.47" y="0" width="108.03" height="52" rx="14" fill="#171A1F" stroke="#252931" stroke-width="1.2"/><circle cx="1806.47" cy="26" r="5" fill="#7CC4FF"/><g transform="translate(1820.47 32.5) scale(0.01900 -0.01900)" fill="#EEEBE3"><use xlink:href="#b47"/><use xlink:href="#b7" x="674"/><use xlink:href="#b26" x="942"/><use xlink:href="#b24" x="1549"/><use xlink:href="#b3" x="2478"/></g><rect x="1906.5" y="0" width="107.7" height="52" rx="14" fill="#171A1F" stroke="#252931" stroke-width="1.2"/><circle cx="1926.5" cy="26" r="5" fill="#7CC4FF"/><g transform="translate(1940.5 32.5) scale(0.01900 -0.01900)" fill="#EEEBE3"><use xlink:href="#b41"/><use xlink:href="#b4" x="608"/><use xlink:href="#b38" x="1255"/><use xlink:href="#b7" x="1762"/><use xlink:href="#b20" x="2030"/><use xlink:href="#b8" x="2648"/></g><rect x="2026.2" y="0" width="106.14" height="52" rx="14" fill="#171A1F" stroke="#252931" stroke-width="1.2"/><circle cx="2046.2" cy="26" r="5" fill="#7CC4FF"/><g transform="translate(2060.2 32.5) scale(0.01900 -0.01900)" fill="#EEEBE3"><use xlink:href="#b23"/><use xlink:href="#b7" x="587"/><use xlink:href="#b46" x="855"/><use xlink:href="#b24" x="1450"/><use xlink:href="#b10" x="2379"/></g><rect x="2144.35" y="0" width="165.08" height="52" rx="14" fill="#171A1F" stroke="#252931" stroke-width="1.2"/><circle cx="2164.35" cy="26" r="5" fill="#7CC4FF"/><g transform="translate(2178.35 32.5) scale(0.01900 -0.01900)" fill="#EEEBE3"><use xlink:href="#b22"/><use xlink:href="#b18" x="676"/><use xlink:href="#b10" x="942"/><use xlink:href="#b17" x="1518"/><use xlink:href="#b21" x="2129"/><use xlink:href="#b3" x="2757"/><use xlink:href="#b22" x="3571"/><use xlink:href="#b26" x="4246"/><use xlink:href="#b21" x="4853"/><use xlink:href="#b3" x="5481"/></g><rect x="2321.43" y="0" width="107.44" height="52" rx="14" fill="#171A1F" stroke="#252931" stroke-width="1.2"/><circle cx="2341.43" cy="26" r="5" fill="#7CC4FF"/><g transform="translate(2355.43 32.5) scale(0.01900 -0.01900)" fill="#EEEBE3"><use xlink:href="#b22"/><use xlink:href="#b26" x="675"/><use xlink:href="#b21" x="1282"/><use xlink:href="#b3" x="1910"/><use xlink:href="#b12" x="2472"/></g></g></g></g>
<rect x="0" y="0" width="250" height="300" fill="url(#fadeL)"/>
<rect x="1060" y="0" width="140" height="300" fill="url(#fadeR)"/>
<rect x="28" y="56" width="4" height="24" rx="2" fill="#C9F31D"/>
<g transform="translate(44 67) scale(0.01200 -0.01200)" fill="#EEEBE3"><use xlink:href="#n54"/><use xlink:href="#n55" x="666.67"/><use xlink:href="#n56" x="1333.33"/><use xlink:href="#n57" x="2000"/><use xlink:href="#n58" x="2666.67"/><use xlink:href="#n59" x="3333.33"/><use xlink:href="#n60" x="4000"/><use xlink:href="#n57" x="4666.67"/><use xlink:href="#n61" x="5333.33"/></g>
<g transform="translate(44 84) scale(0.01100 -0.01100)" fill="#5B606A"><use xlink:href="#m62"/><use xlink:href="#m63" x="600"/><use xlink:href="#m64" x="1800"/><use xlink:href="#m65" x="2400"/><use xlink:href="#m65" x="3000"/><use xlink:href="#m66" x="3600"/><use xlink:href="#m67" x="4200"/></g>
<rect x="28" y="138" width="4" height="24" rx="2" fill="#FF6B3D"/>
<g transform="translate(44 149) scale(0.01200 -0.01200)" fill="#EEEBE3"><use xlink:href="#n68"/><use xlink:href="#n69" x="666.67"/><use xlink:href="#n70" x="1333.33"/><use xlink:href="#n71" x="2000"/><use xlink:href="#n59" x="2666.67"/><use xlink:href="#n60" x="3333.33"/><use xlink:href="#n57" x="4000"/><use xlink:href="#n61" x="4666.67"/><use xlink:href="#n72" x="6000"/><use xlink:href="#n61" x="7333.33"/><use xlink:href="#n69" x="8000"/><use xlink:href="#n58" x="8666.67"/><use xlink:href="#n69" x="9333.33"/></g>
<g transform="translate(44 166) scale(0.01100 -0.01100)" fill="#5B606A"><use xlink:href="#m62"/><use xlink:href="#m73" x="600"/><use xlink:href="#m64" x="1800"/><use xlink:href="#m65" x="2400"/><use xlink:href="#m65" x="3000"/><use xlink:href="#m66" x="3600"/><use xlink:href="#m67" x="4200"/></g>
<rect x="28" y="220" width="4" height="24" rx="2" fill="#7CC4FF"/>
<g transform="translate(44 231) scale(0.01200 -0.01200)" fill="#EEEBE3"><use xlink:href="#n74"/><use xlink:href="#n75" x="666.67"/><use xlink:href="#n72" x="2000"/><use xlink:href="#n58" x="3333.33"/><use xlink:href="#n56" x="4000"/><use xlink:href="#n56" x="4666.67"/><use xlink:href="#n75" x="5333.33"/><use xlink:href="#n76" x="6000"/><use xlink:href="#n57" x="6666.67"/><use xlink:href="#n77" x="7333.33"/></g>
<g transform="translate(44 248) scale(0.01100 -0.01100)" fill="#5B606A"><use xlink:href="#m62"/><use xlink:href="#m63" x="600"/><use xlink:href="#m64" x="1800"/><use xlink:href="#m65" x="2400"/><use xlink:href="#m65" x="3000"/><use xlink:href="#m66" x="3600"/><use xlink:href="#m67" x="4200"/></g>
</g>
</svg>